<svg xmlns="http://www.w3.org/2000/svg" width="20px" height="20px" viewBox="0 0 20 20">
	<g id="Layer_2" data-name="Layer 2">
		<g id="Layer_1-2" data-name="Layer 1">
			<path d="M15.84,7.13l-7.5-7a.52.52,0,0,0-.68,0l-7.5,7a.51.51,0,0,0,0,.71.51.51,0,0,0,.71,0L8,1.18l7.16,6.69A.48.48,0,0,0,15.5,8a.5.5,0,0,0,.37-.16A.51.51,0,0,0,15.84,7.13Z"/><path d="M13.5,8a.5.5,0,0,0-.5.5V15H10V11.5a.5.5,0,0,0-.5-.5h-3a.5.5,0,0,0-.5.5V15H3V8.5a.5.5,0,0,0-1,0v7a.5.5,0,0,0,.5.5h4a.5.5,0,0,0,.5-.5V12H9v3.5a.5.5,0,0,0,.5.5h4a.5.5,0,0,0,.5-.5v-7A.5.5,0,0,0,13.5,8Z"/>
		</g>
	</g>
</svg>
