<svg width="15px" height="16px" viewBox="0 0 15 16" xmlns="http://www.w3.org/2000/svg">
	<g stroke="none" stroke-width="1" fill="none" fill-rule="evenodd">
		<g transform="translate(-869.000000, -4444.000000)" class="fill" fill-rule="nonzero">
			<g transform="translate(869.000000, 4444.000000)">
				<path d="M14.0067976,9 L12.0203927,9 L12.0203927,3 C12.0203927,2.4 11.6231117,2 11.0271902,2 L7.94561958,2 L7.94561958,0 L6.95241713,0 L6.95241713,2 L3.97280979,2 C3.37688832,2 2.97960734,2.4 2.97960734,3 L2.97960734,9 L0.993202447,9 C0.397280979,9 0,9.4 0,10 L0,15 C0,15.6 0.397280979,16 0.993202447,16 L14.0067976,16 C14.602719,16 15,15.6 15,15 L15,10 C15,9.4 14.602719,9 14.0067976,9 Z M3.9022478,10 L3.9022478,3.0020752 L10.9720258,2.97070312 L10.9720258,10 L10.9720258,15.0455322 L7.98065809,15.0455322 L7.98065809,11 L6.95241713,11 L6.95241713,15.0455322 L3.9022478,15.0455322 L3.9022478,10 Z M1,10 L3,10 L3,15 L1,15 L1,10 Z M12,10 L14,10 L14,15 L12,15 L12,10 Z"></path>
				<polygon points="7 6 8 6 8 8 7 8"></polygon>
			</g>
		</g>
	</g>
</svg>
