<svg xmlns="http://www.w3.org/2000/svg" width="21px" height="20px" viewBox="0 0 21 20">
	<g id="Layer_2" data-name="Layer 2">
		<g id="Layer_1-2" data-name="Layer 1">
			<path d="M14.33,3.13A.34.34,0,0,0,14.24,3,8,8,0,0,0,8,0c-.2,0-.4,0-.6,0H7.33A8,8,0,0,0,3.47,1.41l-.06.05A8,8,0,0,0,2.77,14h0A8,8,0,0,0,14.33,3.13Zm-1.26.06a15,15,0,0,1-3.06.9c-.19,0-.24,0-.57-.57L9.1,3a6.51,6.51,0,0,0-.57-.7c-.3-.35-.71-.82-.71-1.08a.78.78,0,0,1,0-.16H8A6.93,6.93,0,0,1,13.07,3.19ZM1,8A7,7,0,0,1,3.68,2.5a4,4,0,0,1,.8,1c.31.53.79,1.66.4,2.17a3.93,3.93,0,0,1-1.28.82C2.84,6.84,2,7.23,2,8A2.91,2.91,0,0,0,3,9.68a5.11,5.11,0,0,1,.52.65,1.93,1.93,0,0,1,0,2.18,2,2,0,0,1-.42.45A7,7,0,0,1,1,8Zm7,7a6.94,6.94,0,0,1-4.15-1.38,2.85,2.85,0,0,0,.47-.57,2.91,2.91,0,0,0,0-3.29A9.08,9.08,0,0,0,3.73,9C3.42,8.67,3,8.23,3,8s.69-.48,1-.63A4.67,4.67,0,0,0,5.67,6.26c.85-1.1,0-2.79-.32-3.28a5.59,5.59,0,0,0-.82-1,6.89,6.89,0,0,1,2.29-.82v.07a3,3,0,0,0,1,1.72,5.72,5.72,0,0,1,.48.6A4.42,4.42,0,0,1,8.57,4c.31.52.62,1.07,1.42,1.07h.14A16.61,16.61,0,0,0,13.73,4,6.9,6.9,0,0,1,15,8,7,7,0,0,1,8,15Z"/>
			<path d="M13.28,8.57a2.76,2.76,0,0,0-2.88-2.5,3.18,3.18,0,0,0-2.35,1,2.1,2.1,0,0,0-.54,1.61,11.62,11.62,0,0,1,0,2.34c-.07,1-.13,1.78,1,2.23a1.78,1.78,0,0,0,.61.11,3,3,0,0,0,1.69-.62,5.52,5.52,0,0,0,2.49-4.12Zm-3,3.34a1.69,1.69,0,0,1-1.36.4c-.37-.15-.41-.21-.34-1.23a13.31,13.31,0,0,0,0-2.52,1,1,0,0,1,.29-.83,2.2,2.2,0,0,1,1.63-.66h.12a1.75,1.75,0,0,1,1.73,1.57A4.63,4.63,0,0,1,10.23,11.91Z"/>
		</g>
	</g>
</svg>
