<svg xmlns="http://www.w3.org/2000/svg" viewBox="0 0 1463.02 225.5"><path fill="#063937" d="M1177.66 116.84h74.64c-2.63-15.08-17.07-29.53-33.81-29.53-17.07 0-35.58 10.68-40.83 29.53m-.66 33.58c4.92 24.19 26.7 29.48 43.14 29.65 18.05.18 28.57-5.78 36.77-13l39.72 21.36c-19.04 20.11-39.73 37.07-79.77 37.07-54.82 0-91.58-37.38-91.58-89.85 0-52.15 41.03-89.54 90.92-89.54 52.19 0 87.41 36.34 87.41 85.98 0 3.77-.42 13.92-.75 18.32H1177zM1433.2 224.19c16.63 0 29.82-13.08 29.82-29.28 0-16.2-13.19-29.28-29.82-29.28-16.01 0-29.5 13.08-29.5 29.28 0 16.2 13.49 29.28 29.5 29.28M457.49 44.3c-22.67 0-40.11 9.34-48.47 21.46V48.11h-52.65v173.05h52.65v-84.1c0-31.5 15.34-45.34 35.22-45.34 19.18 0 28.25 14.54 28.25 38.42v91.03h52.66V121.14c-.01-45.34-24.77-76.84-67.66-76.84M1.98 0v221.16h52.66v-73.9l56.44 73.9h67.56l-74.83-91.55 68.24-81.5h-64.3l-53.11 65.23V0z"/><path fill="#063937" d="M248.78 176.17c-22.32 0-38.71-16.61-38.71-41.53s16.39-41.53 38.71-41.53 38.71 16.62 38.71 41.53c0 24.92-16.39 41.53-38.71 41.53m0-131.87c-50.21 0-91.71 39.46-91.71 90.33s41.49 90.33 91.71 90.33 91.71-39.46 91.71-90.33-41.5-90.33-91.71-90.33M1043.76 44.3c-22.66 0-40.1 9.34-48.47 21.46V48.11h-52.66v173.05h52.66v-84.1c0-31.5 15.34-45.34 35.22-45.34 19.18 0 28.25 14.54 28.25 38.42v91.03h52.65V121.14c0-45.34-24.75-76.84-67.65-76.84M865 48.11h52.66v173.05H865zM595.91 0h-52.65v157.82c0 44.3 31.38 65.42 70.08 65.42 12.26 0 13.08-.05 31.39-1.12v-45.37c-12.62.81-13.94.81-21.96.81-20.92 0-26.86-10.5-26.86-31.27V93.45h48.82V48.11h-48.82V0zM751.41 177.56c-23.71 0-39.75-18-39.75-42.92s16.04-42.92 39.75-42.92 39.75 18 39.75 42.92-16.04 42.92-39.75 42.92m35.56-112.14c-7.67-9.34-23.71-21.11-47.42-21.11-45.68 0-80.9 41.53-80.9 90.33 0 48.81 35.22 90.33 80.9 90.33 23.71 0 39.76-11.77 47.42-21.11v17.3h52.66V48.11h-52.66v17.31zM1371.61 75.63V48.11h-52.65v173.05h52.65v-68.15c.15-5.72.69-13.14 2.27-18.49 5.64-15.88 21.21-35.11 63.59-35.95V49.73c-10.03-.53-46.47-.42-65.86 25.9"/></svg>