<svg width="16px" height="16px" viewBox="0 0 16 16" xmlns="http://www.w3.org/2000/svg">
	<g stroke="none" stroke-width="1" fill="none" fill-rule="evenodd">
		<g transform="translate(-248.000000, -824.000000)" class="fill" fill-rule="nonzero">
			<g transform="translate(248.000000, 824.000000)">
				<g>
					<path d="M3.66666667,15.5333333 L0.466666667,15.5333333 L0.466666667,5.33333333 L3.66666667,5.33333333 L3.66666667,15.5333333 Z M2.06666667,3.93333333 C1.06666667,3.93333333 0.2,3.13333333 0.2,2.06666667 C0.2,1.06666667 1,0.2 2.06666667,0.2 C3.06666667,0.2 3.93333333,1 3.93333333,2.06666667 C3.93333333,3.13333333 3.06666667,3.93333333 2.06666667,3.93333333 Z M15.5333333,15.5333333 L12.4,15.5333333 L12.4,10.6 C12.4,9.4 12.4,7.93333333 10.7333333,7.93333333 C9.06666667,7.93333333 8.86666667,9.2 8.86666667,10.5333333 L8.86666667,15.6 L5.73333333,15.6 L5.73333333,5.33333333 L8.66666667,5.33333333 L8.66666667,6.73333333 L8.73333333,6.73333333 C9.13333333,5.93333333 10.2,5.06666667 11.7333333,5.06666667 C14.9333333,5.06666667 15.5333333,7.2 15.5333333,9.93333333 L15.5333333,15.5333333 Z"></path>
				</g>
			</g>
		</g>
	</g>
</svg>
