<svg width="249" height="50" viewBox="0 0 249 50"
	xmlns="http://www.w3.org/2000/svg"
	xmlns:xlink="http://www.w3.org/1999/xlink" data-v-18460b0a="">
	<defs>
		<path id="a" d="M0 29.76h169.568V0H0z"></path>
		<path id="c" d="M55.965.168V33.82H0V.168h55.965z"></path>
		<path id="e" d="M.214 44.068h35.407V.06H.214z"></path>
	</defs>
	<g fill="none" fill-rule="evenodd">
		<g>
			<g transform="translate(79 14)">
				<path d="M124.56 3.635c2.67 0 3.918.771 4.607 1.334 1.16.946 2.172 2.645 2.172 5.675V29.38h-4.023V11.707c0-2.685-1.43-4.11-4.064-4.11-2.692 0-4.063 1.425-4.063 4.11V29.38h-4.018l.051-25.744h9.339z" fill="#000"></path>
				<path d="M53.911 3.635h-9.338l-.051 25.744h4.017V11.707c0-2.685 1.37-4.11 4.064-4.11 2.634 0 4.064 1.425 4.064 4.11V29.38h4.024V10.644c0-3.03-1.014-4.729-2.174-5.675-.69-.563-1.937-1.334-4.606-1.334" fill="#000"></path>
				<mask id="b" fill="#fff">
					<use xlink:href="#a"></use>
				</mask>
				<path fill="#000" mask="url(#b)" d="M104.451 29.379h3.978V3.62h-3.978z"></path>
				<path d="M70.68 0h-4.1s-.022 17.906-.01 21.65c.018 6.409 5.111 7.743 8.667 7.753l2.456-.01-.01-3.9-.471.002c-4.505 0-6.56-.966-6.56-4.642v-4.246h.029v-6.221c0-1.849.902-2.926 2.945-2.926h4.123V3.655H70.68V0z" fill="#000" mask="url(#b)"></path>
				<path d="M141.174 10.651c0-2.586 1.273-3.777 4.031-3.777 2.44 0 3.66 1.408 3.66 3.58v1.477c0 1.913-1.14 2.07-2.83 2.473-1.692.402-4.861 1.005-4.861 1.005v-4.758zm7.345 6.894c3.236-.98 4.428-2.503 4.428-5.557V9.536c0-3.775-2.832-6.164-8.257-6.157-3.872.006-7.475 2.066-7.475 5.478v13.974c0 2.01.371 3.544 1.391 4.623 1.238 1.31 3.118 1.947 6.067 1.947 4.512 0 7.89-1.333 7.89-1.333l-1.11-3.322s-2.949 1.092-6.692 1.092c-2.434 0-3.587-.782-3.587-3.108v-3.59l7.345-1.595z" fill="#000" mask="url(#b)"></path>
				<path d="M93.587 22.872c0 2.57-1.265 3.75-4.01 3.75-2.427 0-4.381-1.026-4.381-3.183v-1.541c0-1.904 1.315-2.79 3.106-3.103l5.285-1.25v5.327zm4.068-12.217c0-4.48-2.428-7.033-7.548-7.006-3.087.015-5.57.015-5.57.015V7.47h5.447c2.378 0 3.603.913 3.603 3.228v3.06l-7.334 1.819c-3.22.977-4.74 2.79-4.74 5.818v2.402c0 3.752 3.862 5.964 7.652 5.964 3.588 0 5.248-1.244 5.248-1.244 0 .505.78.862.78.862l3.418.014s-.956-2.227-.956-3.97V10.655z" fill="#000" mask="url(#b)"></path>
				<path d="M9.75 15.826c.04-3.882 9.647-12.21 9.647-12.21H12.97L4.002 15.984V3.634H0V29.39l4.002.01V16.011l9.73 13.355h6.107S9.711 19.562 9.75 15.827" fill="#000" mask="url(#b)"></path>
				<path d="M157.576 3.606v25.79h4.164V12.86c0-4.108 2.174-5.324 6.873-5.324h.955v-3.93h-11.992z" fill="#000"></path>
				<path d="M34.335 21.92c0 2.654-1.334 3.877-4.106 3.877-2.77 0-4.316-1.223-4.316-3.876V11.312c0-2.596 1.441-3.978 4.211-3.978 2.77 0 4.211 1.382 4.211 3.978v10.609zm-4.21-18.48c-5.735 0-8.523 2.498-8.523 7.553v11.145c0 5.11 2.788 7.554 8.522 7.554 5.74 0 8.522-2.444 8.522-7.554V10.993c0-5.055-2.783-7.554-8.522-7.554z" fill="#000" mask="url(#b)"></path>
			</g>
		</g>
		<g>
			<g transform="translate(0 14.407)">
				<mask id="d" fill="#fff">
					<use xlink:href="#c"></use>
				</mask>
				<path d="M11.678 30.916C8.755 30.023 0 23.374 0 10.007c0-4.879 3.814-7.102 10.2-8.403C22.342-.868 36.927-.656 47.093 6.306c4.54 3.109 8.872 6.806 8.872 9.996 0 4.02-3.453 7.426-8.504 11.3-5.636 4.323-13.283 6.316-20.918 6.215-6.094-.081-10.347-1.523-14.865-2.901" fill="#000" mask="url(#d)"></path>
			</g>
			<g transform="translate(11.879 5.932)">
				<mask id="f" fill="#fff">
					<use xlink:href="#e"></use>
				</mask>
				<path d="M16.12 44.068c-5.602 0-14.512-1.386-15.721-3.558-.201-.36-.237-.704-.113-1.082.072-.22.14-.44.208-.655.325-1.04.632-2.023 1.29-2.855.54-.683 1.121-1.29 2.108-1.708.167-.07 1.038-.27 1.038-.27s.457-.714 1.02-.96c2.302-1.008 7.43-1.285 8.98-1.328.361-.01.397-.246.396-.346l.064-.008c-.056-.12-.419-.524-.419-.748 0-.57.163-.77.25-.878l.66-.27-.505-.093c-.04-.047-.153-.225-.198-.751-.033-.39.114-1.056.116-1.06l.17-.427-.451-.038C6.7 26.32 4.603 23.3 4.583 23.267l-.352-.64s-.432.211-.542.211c-.77 0-2.023-.581-2.054-1.272-.066-1.51-.05-12.804-.02-13.284.118-1.8 2.324-3.029 3.012-3.033l.236.27.242-.35c.497-.72 5.706-3.796 13.922-3.796 6.429 0 10.708 1.479 12.686 2.36l.453.202.085-3.246c.006-.233.007-.244.128-.35.156-.097.434-.23.577-.232.202 0 .136-.102.261-.004.197.156.238.25.24.35l.04 4.207.142.1c1.331.939 1.986 2.058 1.982 3.417-.001.093-.196 10.442-.28 11.711l-.012.196c-.073 1.165-.149 2.37-1.253 3.102-1.389.922-4.265 2.721-9.595 3.292l-.434.046.16.415c.135.352.23 1.581-.26 1.906l-.4.264.382.291c.001.002.125.398.155.892.013.202-.209.545-.37.724l-.242.534.734.017c1.827.041 6.24.608 8.647 1.788.405.199.945 1.217 1.213 4.943l.015.202c-.133.84-6.937 5.482-17.738 5.567h-.223z" fill="#FFF" mask=""></path>
			</g>
			<path d="M46.904 26.689c-.02 1.016-.65 1.897-1.511 2.487-1.373.939-4.106 2.933-13.303 3.124-8.958.188-11.41-1.35-13.217-2.182-1.547-.712-2.097-1.705-2.106-2.397-.008-.691.037-.173.054-5.846.016-5.671.065-7.018.088-7.557.06-1.385.887-2.933 2.877-3.727 2.471-.985 5.663-2.28 11.165-2.18 7.293.136 12.66 1.713 15.165 3.73.556.374.966 1.199 1 1.573.03.346-.122 8.26-.212 12.975m-10.792 6.93c-.027.222-.06.502-.085.724-.025.218-.217.378-.52.39-.253.01-5.526.115-7.22.149-.327.007-.524-.206-.498-.48.02-.215.018-.384.024-.491.013-.217.244-.474.613-.49 1.734-.071 4.86-.071 7.12-.327.215-.025.62.094.566.526m-.343 2.485c-.013.12-.035.256-.058.382-.048.258-.22.475-.545.505-2.215.21-4.895.099-6.964.266-.392.032-.61-.21-.614-.48l.011-.286c.009-.26.254-.546.652-.567 1.82-.099 5.649-.286 7.09-.356.211-.01.463.204.428.536M16.467 12.7c-.149.518-.276.955-.266 1.82.005.394-.044.313-.048 7.105a312.185 312.185 0 0 1-.083 5.892c-.028 1.21-.66.888-1.21.549-.214-.133-.463-.257-.604-.591-.272-.65-.104-11.159-.053-12.834.014-.442.229-.887.714-1.298.406-.343.44-.4 1.058-.752.182-.104.575-.18.492.109m-2.162 29.304c.48-.74 1.002-.961 1.46-1.266.575-.385.82-.314.692.784-.152 1.301-.72 4.643-.796 5.01-.109.52.01.846.415.917.592.105.685-.686.685-.686s.855-5.755.908-6.134c.042-.3.153-.816.614-1.095.56-.34 1.186-.544 2.812-.733 2.48-.287 7.293-.973 12.178-.88 7.958.152 9.991.845 10.609 1.03.434.13 1.16.562 1.39.9.231.34.308 3.467.308 3.682.006.163.159 1.406.957.816.481-.356.084-2.659-.272-4.564-.1-.534-.527-1.044-.963-1.256-2.443-1.19-7.076-1.466-8.96-1.507 0 0 .488-.528.46-.963-.041-.67-.376-.922-.376-.922.837-.544.21-2.135.21-2.135 4.772-.503 8.122-1.884 10.048-3.14 1.317-.86 1.34-2.262 1.423-3.518.084-1.256.257-11.885.257-11.952.005-1.783-1.068-2.915-2.127-3.65l-.04-3.987c-.004-.264-.16-.442-.37-.605a1.09 1.09 0 0 0-.697-.217c-.317.004-.774.293-.774.293-.23.196-.255.255-.266.61l-.072 2.709c-2.305-1.01-6.611-2.36-12.892-2.36-8.419 0-13.75 3.415-14.28 4.169-.224-.251-1.437.28-2.293 1.003-.537.453-1.118 1.159-1.268 1.933-.08.42-.04 11.943.016 13.198.05 1.116 2.456 2.402 3.014 1.843 0 0 2.12 3.434 10.746 4.16 0 0-.18.444-.14.92.084.978.42 1.034.42 1.034-.104.124-.336.39-.336 1.088 0 .442.223.893.307.893.353 0-6.531.084-9.322 1.285-.739.317-.894.92-.894.92-.083 0-.392-.25-1.06.029-1.073.447-1.951 1.089-2.512 1.786-.84 1.045-1.128 2.267-1.563 3.573-.168.503-.09 1.13.349 1.26.5.15.767-.031.934-.478 0 0 .335-2.68 1.061-3.797" fill="#000"></path>
			<path d="M27.364 27.685c.667.175 2.574.317 3.752.273 1.716-.065 2.752-.555 3.397-.86.28-.133.27-.486.27-.486l.005-.88s.018-.39-.31-.293c-.605.18-1.791.758-3.263.758-1.375 0-3.195-.444-3.78-.579-.142-.032-.234.265-.234.265l-.048 1.368s-.034.369.211.434" fill="#000"></path>
			<path d="M24.694 18.638c-.345.364-.475 1.105-.728.791-.225-.278.15-1.03.375-1.306.225-.275.882-.487 1.106-.191.223.292-.434.37-.753.706m.738-1.689c-1.36.022-2.54 1.24-2.523 2.921.017 1.68.998 3.032 2.358 3.011 1.358-.021 2.75-1.06 2.733-2.739-.017-1.682-1.21-3.214-2.568-3.193" fill="#000"></path>
			<path d="M37.309 18.675c-.359.358-.496 1.085-.76.777-.235-.274.157-1.011.391-1.28.236-.27.921-.479 1.156-.19.231.288-.454.363-.787.693m.885-1.726c-1.419.02-2.575.949-2.557 2.597.017 1.647.93 3.356 2.349 3.335 1.417-.02 2.757-1.154 2.741-2.801-.017-1.648-1.116-3.151-2.533-3.13" fill="#000"></path>
			<g fill="#000">
				<path d="M43.676 1.038c.22-.17.988-.453 1.02-.104.016.167-.564.327-.803.495-.393.277-.613.826-.775.57-.129-.203.137-.638.558-.96m1.14 3.924c1.41-.017 2.617-1.016 2.6-2.39C47.4 1.2 46.166.225 44.756.241c-1.41.018-2.26 1.048-2.242 2.421.017 1.373.892 2.319 2.302 2.3"></path>
			</g>
		</g>
	</g>
</svg>