
<svg width="164px" height="29px" viewBox="0 0 164 29" xmlns="http://www.w3.org/2000/svg" xmlns:xlink="http://www.w3.org/1999/xlink">
	<g id="Symbols" stroke="none" stroke-width="1" fill="none" fill-rule="evenodd">
		<g id="Header" transform="translate(-141.000000, -46.000000)">
			<g id="Group-3-Copy" transform="translate(141.000000, 46.000000)">
				<g id="Page-1">
					<path d="M120.164427,3.51427273 C122.739623,3.51427273 123.943022,4.25948485 124.608255,4.80345455 C125.727236,5.71783333 126.703762,7.36028788 126.703762,10.2892879 L126.703762,28.3997879 L122.822282,28.3997879 L122.822282,11.3170303 C122.822282,8.7215303 121.443011,7.34315152 118.90211,7.34315152 C116.304491,7.34315152 114.981939,8.7215303 114.981939,11.3170303 L114.981939,28.3997879 L111.106175,28.3997879 L111.155419,3.51427273 L120.164427,3.51427273 Z" class="fill"></path>
					<path d="M52.0082692,3.51427273 L42.9997008,3.51427273 L42.9504568,28.3997879 L46.8262209,28.3997879 L46.8262209,11.3170303 C46.8262209,8.7215303 48.1483335,7.34315152 50.7468322,7.34315152 C53.287733,7.34315152 54.6670038,8.7215303 54.6670038,11.3170303 L54.6670038,28.3997879 L58.5484836,28.3997879 L58.5484836,10.2892879 C58.5484836,7.36028788 57.5710788,5.71783333 56.4520976,4.80345455 C55.7868643,4.25948485 54.5834649,3.51427273 52.0082692,3.51427273" class="fill"></path>
					<mask class="fill">
						<use xlink:href="#path-1"></use>
					</mask>
					<g></g>
					<polygon class="fill" mask="url(#mask-2)" points="100.76459 28.3996121 104.601662 28.3996121 104.601662 3.50003636 100.76459 3.50003636"></polygon>
					<path d="M68.1861877,0 L64.2308418,0 C64.2308418,0 64.2084182,17.3090455 64.2202895,20.9278939 C64.2383164,27.1233485 69.1512815,28.4134091 72.5812118,28.4230758 C72.5922038,28.4230758 74.9506381,28.4134091 74.9506381,28.4134091 L74.9409651,24.6425303 L74.4867775,24.6451667 C70.1405576,24.6451667 68.1589276,23.7114545 68.1589276,20.1580758 L68.1589276,16.0532576 L68.1861877,16.0532576 L68.1861877,10.0397121 C68.1861877,8.25269697 69.0567507,7.21089394 71.0278284,7.21089394 L75.0047185,7.21089394 L75.0047185,3.53360606 L68.1861877,3.53360606 L68.1861877,0 Z" class="fill" mask="url(#mask-2)"></path>
					<path d="M136.191184,10.2959227 C136.191184,7.79577121 137.419205,6.64455909 140.080578,6.64455909 C142.433297,6.64455909 143.610755,8.00580152 143.610755,10.1047864 L143.610755,11.5332561 C143.610755,13.3822258 142.511559,13.5351348 140.880792,13.9235591 C139.248267,14.3124227 136.191184,14.8954985 136.191184,14.8954985 L136.191184,10.2959227 Z M143.277479,16.9602106 C146.399195,16.0128773 147.548953,14.5404682 147.548953,11.5886197 L147.548953,9.21808939 C147.548953,5.56936212 144.816353,3.25946818 139.583302,3.26605909 C135.847795,3.27177121 132.372138,5.26354394 132.372138,8.56207424 L132.372138,22.0694833 C132.372138,24.0133621 132.730476,25.4963167 133.714476,26.5389985 C134.908203,27.8048924 136.721876,28.4204833 139.567034,28.4204833 C143.919849,28.4204833 147.178744,27.1321803 147.178744,27.1321803 L146.107248,23.9215288 C146.107248,23.9215288 143.262969,24.9765136 139.651892,24.9765136 C137.30401,24.9765136 136.191184,24.2211955 136.191184,21.9719379 L136.191184,18.5020439 L143.277479,16.9602106 Z" class="fill" mask="url(#mask-2)"></path>
					<path d="M90.2843303,22.1099955 C90.2843303,24.5943288 89.0633437,25.7341167 86.4156011,25.7341167 C84.0738745,25.7341167 82.1889737,24.7428439 82.1889737,22.6574803 L82.1889737,21.1679348 C82.1889737,19.3273136 83.4574456,18.4713742 85.1858209,18.1686318 L90.2843303,16.9598591 L90.2843303,22.1099955 Z M94.2080193,10.2999652 C94.2080193,5.9684197 91.8662928,3.50166212 86.9265072,3.52714697 C83.9485662,3.54208636 81.5527592,3.54208636 81.5527592,3.54208636 L81.5527592,7.22069242 L86.8082338,7.22069242 C89.1020354,7.22069242 90.2843303,8.10343485 90.2843303,10.3412682 L90.2843303,13.2997076 L83.2090273,15.0572833 C80.1031399,16.0019803 78.6354938,17.7556015 78.6354938,20.6819652 L78.6354938,23.0041621 C78.6354938,26.6309197 82.3617673,28.7685712 86.0176922,28.7685712 C89.4792794,28.7685712 91.0810273,27.56595 91.0810273,27.56595 C91.0810273,28.0545561 91.8333169,28.3994803 91.8333169,28.3994803 L95.130904,28.4135409 C95.130904,28.4135409 94.2080193,26.2600712 94.2080193,24.5758742 L94.2080193,10.2999652 Z" class="fill" mask="url(#mask-2)"></path>
					<path d="M9.40498231,15.29895 C9.44367399,11.545647 18.7120922,3.49551061 18.7120922,3.49551061 L12.5135078,3.49551061 L3.86107882,15.4514197 L3.86107882,3.51352576 L-0.000175871314,3.51352576 L-0.000175871314,28.409147 L3.86107882,28.4183742 L3.86107882,15.4777833 L13.2477705,28.3884955 L19.1390198,28.3884955 C19.1390198,28.3884955 9.36848901,18.9098894 9.40498231,15.29895" class="fill" mask="url(#mask-2)"></path>
					<path d="M152.014898,3.48531667 L152.014898,28.4169682 L156.031359,28.4169682 L156.031359,12.4304985 C156.031359,8.45881667 158.129064,7.28343788 162.661707,7.28343788 L163.583713,7.28343788 L163.583713,3.48531667 L152.014898,3.48531667 Z" class="fill" mask="url(#mask-2)"></path>
					<path d="M33.1235592,21.1900364 C33.1235592,23.7552182 31.8366209,24.9367485 29.1624976,24.9367485 C26.4896933,24.9367485 24.9983046,23.7552182 24.9983046,21.1900364 L24.9983046,10.9350212 C24.9983046,8.42520303 26.3885673,7.08944545 29.0609319,7.08944545 C31.7328568,7.08944545 33.1235592,8.42520303 33.1235592,10.9350212 L33.1235592,21.1900364 Z M29.0609319,3.32471818 C23.5293394,3.32471818 20.8398273,5.74006667 20.8398273,10.6270061 L20.8398273,21.3996273 C20.8398273,26.3401727 23.5293394,28.7019152 29.0609319,28.7019152 C34.5973609,28.7019152 37.2820365,26.3401727 37.2820365,21.3996273 L37.2820365,10.6270061 C37.2820365,5.74006667 34.5973609,3.32471818 29.0609319,3.32471818 Z" class="fill" mask="url(#mask-2)"></path>
				</g>
			</g>
		</g>
	</g>
</svg>
