<svg width="30" height="31" xmlns="http://www.w3.org/2000/svg" xmlns:xlink="http://www.w3.org/1999/xlink"><defs><path id="a" d="M0 0h30v30.008H0z"/></defs><g fill="none" fill-rule="evenodd"><g><mask id="b" fill="#fff"><use xlink:href="#a"/></mask><path d="M24.941 24.948a13.967 13.967 0 01-9.94 4.118 13.967 13.967 0 01-9.942-4.118 13.971 13.971 0 01-4.118-9.943c0-3.756 1.463-7.287 4.118-9.945A13.967 13.967 0 0115 .942c3.755 0 7.285 1.462 9.941 4.118a13.976 13.976 0 014.118 9.945c0 3.755-1.462 7.287-4.118 9.943M15.001 0C6.715 0-.002 6.717-.002 15.005 0 23.292 6.716 30.008 15 30.008c8.285 0 15.001-6.716 15.001-15.003 0-8.288-6.716-15.005-15-15.005" fill="#C5A67A" mask="url(#b)"/></g><path d="M14.998 10.315a2.477 2.477 0 012.472 2.468 2.479 2.479 0 01-2.472 2.47 2.475 2.475 0 01-2.468-2.47 2.473 2.473 0 012.468-2.468m0-2.962a5.436 5.436 0 00-5.43 5.43c0 5.267 5.124 9.271 5.124 9.271.18.144.437.144.614 0 0 0 5.126-4.004 5.126-9.27a5.44 5.44 0 00-5.434-5.43" fill="#153B38"/></g></svg>