<svg xmlns="http://www.w3.org/2000/svg" width="16px" height="15px" viewBox="0 0 16 15">
	<g id="Layer_2" data-name="Layer 2">
		<g id="Layer_1-2" data-name="Layer 1">
			<path d="M12.5,8h-3a.5.5,0,0,0,0,1h3a.5.5,0,0,0,0-1Z"/>
			<path d="M12.5,11h-3a.5.5,0,0,0,0,1h3a.5.5,0,0,0,0-1Z"/>
			<path d="M14.5,3h-3a.5.5,0,0,0,0,1h3a.5.5,0,0,1,.5.5v9a.5.5,0,0,1-.5.5H1.5a.5.5,0,0,1-.5-.5v-9A.5.5,0,0,1,1.5,4h3a.5.5,0,0,0,0-1h-3A1.5,1.5,0,0,0,0,4.5v9A1.5,1.5,0,0,0,1.5,15h13A1.5,1.5,0,0,0,16,13.5v-9A1.5,1.5,0,0,0,14.5,3Z"/><path d="M3.5,8a.5.5,0,0,0-.5.5v3a.5.5,0,0,0,.5.5h3a.5.5,0,0,0,.5-.5v-3A.5.5,0,0,0,6.5,8ZM6,11H4V9H6Z"/><path d="M6.5,6h3a.5.5,0,0,0,.5-.5V2A2,2,0,0,0,6,2V5.5A.5.5,0,0,0,6.5,6ZM7,2A1,1,0,0,1,9,2V5H7Z"/>
		</g>
	</g>
</svg>
