
<svg width="80px" height="73px" viewBox="0 0 43 38" version="1.1" xmlns="http://www.w3.org/2000/svg" xmlns:xlink="http://www.w3.org/1999/xlink">
    <defs>
        <polygon id="path-1" points="42.9729353 0.128855294 42.9729353 25.9401225 5.05882353e-05 25.9401225 5.05882353e-05 0.128855294 42.9729353 0.128855294"></polygon>
        <polygon id="path-3" points="0.162372634 33 26.9880026 33 26.9880026 0.0451852313 0.162372634 0.0451852313"></polygon>
    </defs>
    <g id="Symbols" stroke="none" stroke-width="1" fill="none" fill-rule="evenodd">
        <g id="Header-mobil" transform="translate(-28.000000, -20.000000)">
            <g id="Page-1" transform="translate(28.000000, 20.000000)">
                <g id="Group-3" transform="translate(0.000000, 11.000000)">
                    <mask id="mask-2" fill="white">
                        <use xlink:href="#path-1"></use>
                    </mask>
                    <g id="Clip-2"></g>
                    <path d="M8.96732118,23.7121981 C6.72246824,23.027779 5.05882353e-05,17.9280648 5.05882353e-05,7.6753981 C5.05882353e-05,3.93337905 2.92835059,2.22777905 7.83212118,1.23061714 C17.1555329,-0.665401905 28.3550094,-0.502468571 36.1610271,4.83669333 C39.6470624,7.22126476 42.9729859,10.0572457 42.9729859,12.5039695 C42.9729859,15.5873219 40.3214035,18.1992076 36.4430565,21.1706362 C32.1157388,24.4862552 26.2437094,26.0150552 20.3812918,25.9373029 C15.70188,25.8753981 12.4361565,24.769779 8.96732118,23.7121981" id="Fill-1" fill="#565761" mask="url(#mask-2)"></path>
                </g>
                <g id="Group-6" transform="translate(10.000000, 5.000000)">
                    <mask id="mask-4" fill="white">
                        <use xlink:href="#path-3"></use>
                    </mask>
                    <g id="Clip-5"></g>
                    <path d="M12.2134374,33.0000254 C7.96888598,33.0000254 1.21838131,31.9620485 0.302147664,30.3356562 C0.149988785,30.0658177 0.122988785,29.8086715 0.216605607,29.5256331 C0.271614953,29.3601254 0.323343925,29.1963946 0.374568224,29.0346946 C0.620848598,28.2558946 0.853250467,27.5202485 1.35161495,26.8970562 C1.76014766,26.38581 2.20123178,25.9316792 2.94890467,25.6181792 C3.07557757,25.5651254 3.73493271,25.41561 3.73493271,25.41561 C3.73493271,25.41561 4.08113832,24.8815177 4.50758692,24.6969715 C6.25224112,23.9422869 10.1372131,23.7343869 11.3115869,23.7021485 C11.5856243,23.6947869 11.6126243,23.5183638 11.611615,23.4434792 L11.6600636,23.4376408 C11.6181757,23.3480331 11.343129,23.0451946 11.343129,22.8771485 C11.343129,22.4506869 11.4662692,22.3006638 11.5326336,22.2199408 L12.0322598,22.0178792 L11.6494654,21.9475638 C11.6199421,21.9127869 11.533643,21.7797715 11.4998299,21.3852946 C11.4748486,21.0931177 11.586129,20.5945638 11.5873907,20.5917715 L11.7158299,20.2721792 L11.374671,20.2434946 C5.07635327,19.7104177 3.48789533,17.4483946 3.4725028,17.4237715 L3.2052785,16.9434946 C3.2052785,16.9434946 2.8785028,17.1021485 2.79523178,17.1021485 C2.21182991,17.1021485 1.26203551,16.6668023 1.2390729,16.1494638 C1.18911028,15.0190869 1.20021308,6.56144077 1.22393271,6.20174077 C1.31275514,4.85407154 2.98448411,3.93387923 3.50581121,3.93032538 L3.68446542,4.13238692 L3.86766168,3.87041769 C4.24465234,3.33175615 8.19119439,1.02784846 14.4158299,1.02784846 C19.2866804,1.02784846 22.5284467,2.13537923 24.0270729,2.79563308 L24.3707551,2.94692538 L24.4348486,0.516094615 C24.4398953,0.341702308 24.4401477,0.333325385 24.5317458,0.254125385 C24.6505963,0.181525385 24.8605402,0.0812561538 24.9692972,0.0799869231 L24.9698019,0.0799869231 C25.1219607,0.0799869231 25.0719981,0.00357923077 25.167129,0.0771946154 C25.3162598,0.19371 25.3472972,0.264025385 25.3485589,0.339417692 C25.3513346,0.61611 25.3793439,3.48964846 25.3793439,3.48964846 L25.4868393,3.56453308 C26.4951757,4.26768692 26.9910168,5.10588692 26.9879888,6.12330231 C26.9874841,6.19260231 26.839615,13.9425254 26.7765308,14.8931792 L26.7671944,15.0396485 C26.7119327,15.9121177 26.6544,16.8140331 25.818157,17.3628485 C24.7656617,18.0530562 22.5864841,19.4004715 18.5483439,19.8279485 L18.2192972,19.8627254 L18.339914,20.1734331 C18.442615,20.4366715 18.5152879,21.3573715 18.1435963,21.6003023 L17.8407925,21.7983023 L18.1297178,22.0161023 C18.1309794,22.0176254 18.2245963,22.3143715 18.2475589,22.6842254 C18.2568953,22.8355177 18.0890916,23.09241 17.9669607,23.2261869 L17.7832598,23.6257408 L18.3396617,23.6386869 C19.7239794,23.6696562 23.0669327,24.0943408 24.8913252,24.9779792 C25.1981664,25.1264792 25.6069514,25.8892869 25.8105869,28.67931 L25.8216897,28.8303485 C25.7205028,29.4593792 20.5655215,32.9355485 12.3819981,32.9992638 L12.2134374,33.0000254 Z" id="Fill-4" fill="#FFFFFF" mask="url(#mask-4)"></path>
                </g>
                <path d="M35.919756,20.495254 C35.9056273,21.2542191 35.4391318,21.9116555 34.8013565,22.3522803 C33.7858239,23.053229 31.7629385,24.5419009 24.9566144,24.6844413 C18.327519,24.8249811 16.5125984,23.6759055 15.1758234,23.0554796 C14.0313972,22.524079 13.6241431,21.7826189 13.6174506,21.2662225 C13.6115017,20.7498262 13.6447165,21.1366858 13.6571102,16.9019856 C13.669008,12.6680357 13.7056931,11.6630008 13.7225484,11.2603867 C13.7671654,10.2265937 14.3786663,9.07101622 15.8515232,8.47759804 C17.6803246,7.74263974 20.0420514,6.77611581 24.1143445,6.85113707 C29.511267,6.95166557 33.4826761,8.12924931 35.3365126,9.6344259 C35.7484763,9.91425521 36.0513762,10.5299297 36.0761634,10.8095089 C36.0994634,11.0678322 35.9866816,16.9760066 35.919756,20.495254 M27.9335601,25.6694705 C27.9132346,25.8347673 27.8894388,26.0440767 27.8703527,26.2098736 C27.8520101,26.3719196 27.7099793,26.4919536 27.4859028,26.500456 C27.2982635,26.5082082 23.3965065,26.5862303 22.1422729,26.6117375 C21.9005975,26.616989 21.7550965,26.457944 21.7741826,26.2531359 C21.7888071,26.0930905 21.7875677,25.9665547 21.7920294,25.8870321 C21.8016965,25.7247362 21.9727283,25.5331819 22.2456356,25.5216786 C23.5283745,25.4681634 25.8417662,25.4681634 27.5141603,25.2768592 C27.6732942,25.258604 27.9732197,25.3471291 27.9335601,25.6694705 M27.6794911,27.5249964 C27.669824,27.6150219 27.6539602,27.7160505 27.6366092,27.8103272 C27.6009156,28.0023817 27.4737571,28.1644276 27.233321,28.1874341 C25.593894,28.3439785 23.610916,28.2607049 22.0795612,28.3857403 C21.7893028,28.409247 21.627938,28.2284457 21.6254593,28.0271387 L21.6336391,27.8138282 C21.6400837,27.6192731 21.8212784,27.4064628 22.1157506,27.3902082 C23.4626884,27.3169374 26.296116,27.1768977 27.3627103,27.1246329 C27.5191177,27.1171308 27.7057655,27.2774262 27.6794911,27.5249964 M13.3951092,10.0515441 C13.2853018,10.4384038 13.1911103,10.7644962 13.1985465,11.4104292 C13.2022646,11.7042625 13.1658274,11.6442455 13.1633486,16.7146826 C13.162605,18.1248322 13.1226976,20.1766637 13.1013806,21.112679 C13.0805593,22.0161851 12.6128244,21.775867 12.2068096,21.5225452 C12.0481714,21.423267 11.8632587,21.3309909 11.7594002,21.0814202 C11.558128,20.5967828 11.6820641,12.7513093 11.7197407,11.5004548 C11.7301513,11.1703612 11.8892853,10.8385172 12.2487,10.5319303 C12.5491212,10.2758577 12.5741563,10.2323454 13.0314806,9.97002102 C13.1658274,9.89274912 13.4570772,9.83573296 13.3951092,10.0515441 M11.7955896,31.9282443 C12.1512862,31.3758378 12.5369755,31.2102908 12.8753211,30.9827263 C13.3016613,30.6953949 13.4826081,30.74866 13.3879209,31.5681423 C13.2756348,32.5396676 12.8554913,35.0346247 12.7989764,35.3079522 C12.718418,35.6968124 12.8069083,35.9396312 13.1060901,35.9928963 C13.5440804,36.0709184 13.6132368,35.4805011 13.6132368,35.4805011 C13.6132368,35.4805011 14.2455589,31.1842835 14.2847227,30.9014533 C14.3157067,30.67789 14.3982482,30.2922807 14.7390725,30.0839716 C15.1540107,29.8303998 15.617036,29.6776065 16.8204558,29.5368166 C18.6561976,29.3225058 22.2176261,28.8101106 25.8325949,28.8798804 C31.7215438,28.9936626 33.2263762,29.5110593 33.6834526,29.6488483 C34.0049429,29.7453757 34.5415864,30.0687173 34.7126182,30.3207887 C34.8834022,30.5743606 34.9399171,32.9090223 34.9399171,33.0690676 C34.9441309,33.1913523 35.0574085,34.1191152 35.6480881,33.6787404 C36.0045284,33.4129151 35.7100561,31.6936778 35.4468158,30.2715248 C35.3729499,29.8726617 35.0566649,29.4923039 34.7341831,29.333759 C32.9264508,28.4452572 29.4978819,28.2396989 28.1036005,28.2084401 C28.1036005,28.2084401 28.4645025,27.8145784 28.4444248,27.4894863 C28.4134408,26.9893446 28.1655685,26.8017914 28.1655685,26.8017914 C28.7852492,26.3954262 28.3204887,25.2075896 28.3204887,25.2075896 C31.8526682,24.8324833 34.3313907,23.8009409 35.7566561,22.8631751 C36.7317855,22.2214933 36.7481451,21.1751967 36.8101132,20.237431 C36.8720812,19.2996652 36.9999833,11.3649164 36.9999833,11.3149022 C37.0041971,9.98402498 36.2102623,9.13828529 35.4259945,8.58987986 C35.4259945,8.58987986 35.3997201,5.88786407 35.3969935,5.61378639 C35.3935233,5.41648047 35.2775191,5.28344276 35.1221032,5.16165825 C35.0110564,5.0753838 34.8422554,4.99661147 34.6072725,5.00011246 C34.3725375,5.00286324 34.033944,5.21892448 34.033944,5.21892448 C33.8646472,5.36496587 33.8453132,5.40872827 33.8373813,5.67355333 L33.7843366,7.69612656 C32.0779841,6.94241294 28.8915863,5.93387711 24.243486,5.93387711 C18.013217,5.93387711 14.0678345,8.48409988 13.6754527,9.04675935 C13.5101219,8.85920619 12.6128244,9.25531846 11.9792629,9.79572162 C11.5816758,10.1340675 11.1516175,10.6604667 11.0408186,11.2386306 C10.9808335,11.5522194 11.010826,20.1541574 11.0522207,21.0916731 C11.0889058,21.9244091 12.8698679,22.8841811 13.2830709,22.4673129 C13.2830709,22.4673129 14.8523501,25.0305394 21.2353084,25.5721929 C21.2353084,25.5721929 21.1019531,25.904287 21.1321935,26.2598878 C21.1941616,26.9893446 21.4420338,27.0311064 21.4420338,27.0311064 C21.365937,27.1241328 21.1941616,27.322689 21.1941616,27.8438367 C21.1941616,28.1739303 21.3592445,28.5105257 21.4212126,28.5105257 C21.682222,28.5105257 16.5877037,28.5732935 14.5221843,29.4692974 C13.9758739,29.7061145 13.861109,30.1569923 13.861109,30.1569923 C13.7991409,30.1569923 13.5708506,29.9699393 13.0763455,30.1777482 C12.2824107,30.5115928 11.6324896,30.9907286 11.2173036,31.5116262 C10.5953922,32.2915973 10.3827178,33.2041059 10.0604838,34.1788822 C9.93654772,34.5539885 9.99380621,35.0226213 10.3187667,35.1198989 C10.6885921,35.2309304 10.886642,35.0958921 11.0105782,34.7625476 C11.0105782,34.7625476 11.2584504,32.7619806 11.7955896,31.9282443" id="Fill-7" fill="#565761"></path>
                <path d="M22.1672511,20.7786741 C22.6908861,20.9165577 24.1891804,21.028588 25.1151998,20.9935016 C26.46292,20.9421031 27.2774633,20.5573834 27.784342,20.3170105 C28.0042687,20.2126745 27.9968214,19.9350608 27.9968214,19.9350608 L27.9998469,19.2431808 C27.9998469,19.2431808 28.0145087,18.9354051 27.7568802,19.012349 C27.2814197,19.1542337 26.3491166,19.6085107 25.1926978,19.6085107 C24.1123806,19.6085107 22.6822752,19.2591852 22.2224073,19.1530026 C22.1113967,19.1274572 22.0392514,19.3616745 22.0392514,19.3616745 L22.001317,20.4373508 C22.001317,20.4373508 21.974088,20.7275834 22.1672511,20.7786741" id="Fill-9" fill="#565761"></path>
                <path d="M19.4023489,14.4233418 C19.1315563,14.730613 19.0295038,15.3551341 18.830451,15.0901857 C18.6536274,14.8555172 18.9484176,14.222394 19.1247359,13.98979 C19.3020647,13.7578742 19.8181369,13.5789481 19.9942027,13.8284124 C20.1690054,14.0747799 19.6534384,14.1394686 19.4023489,14.4233418 M19.9825829,13.0001908 C18.9135581,13.0180834 17.9870025,14.0451883 18.000138,15.4621457 C18.0130208,16.8777267 18.7839716,18.0173485 19.8524912,17.9998 C20.9194952,17.9819074 22.0127701,17.1065457 21.9998872,15.6913088 C21.9867518,14.2736632 21.0493342,12.9819541 19.9825829,13.0001908" id="Fill-11" fill="#565761"></path>
                <path d="M28.3142347,14.4547724 C28.0323256,14.7560133 27.9242033,15.3689526 27.7171887,15.1095413 C27.5323259,14.8788036 27.8403426,14.2574309 28.0246779,14.0304038 C28.2095407,13.8027021 28.7483062,13.6272874 28.9323778,13.8711813 C29.1143397,14.1133885 28.5758379,14.1768076 28.3142347,14.4547724 M29.009382,13.00018 C27.8946675,13.0167095 26.9864402,13.7996661 27.0001533,15.1884779 C27.0141301,16.5772898 27.7309018,18.0177141 28.8461437,17.9998353 C29.9595396,17.9822938 31.0125452,17.0269585 30.999887,15.638484 C30.9864377,14.2496722 30.1233053,12.9826386 29.009382,13.00018" id="Fill-13" fill="#565761"></path>
                <g id="Group-17" transform="translate(32.000000, 0.000000)" fill="#565761">
                    <path d="M0.983285714,0.816714286 C1.15642857,0.683571429 1.75985714,0.459857143 1.78528571,0.735 C1.79728571,0.866142857 1.34185714,0.991857143 1.15414286,1.12442857 C0.845,1.34242857 0.672428571,1.77357143 0.545,1.57271429 C0.443857143,1.413 0.653,1.07042857 0.983285714,0.816714286 M1.87957143,3.90414286 C2.987,3.891 3.93557143,3.10471429 3.92214286,2.02442857 C3.90842857,0.944142857 2.93985714,0.177285714 1.83185714,0.189857143 C0.724142857,0.203857143 0.057,1.01385714 0.0701428571,2.09442857 C0.0835714286,3.17442857 0.771,3.91814286 1.87957143,3.90414286" id="Fill-15"></path>
                </g>
            </g>
        </g>
    </g>
</svg>
