<svg width="61px" height="61px" viewBox="0 0 61 61" xmlns="http://www.w3.org/2000/svg">
    <g id="1440px" stroke="none" stroke-width="1" fill="none" fill-rule="evenodd">
        <g id="Technical-features" transform="translate(-690.000000, -2814.000000)">
            <g id="Group-2" transform="translate(690.000000, 2814.000000)">
                <g id="badge-15">
                    <polyline id="Shape" stroke="#FFBD00" stroke-linecap="square" points="36.499 14.5 60.5 14.5 60.5 60.5 0.5 60.5 0.5 14.5 24.499 14.5"></polyline>
                    <path d="M36.5,20.5 L24.5,20.5 L24.5,6.5 C24.5,3.186 27.186,0.5 30.5,0.5 C33.814,0.5 36.5,3.186 36.5,6.5 L36.5,20.5 Z" id="Shape" stroke="#FFBD00" stroke-linecap="square"></path>
                    <path d="M34.5,34.5 L50.5,34.5" id="Shape" stroke="#5391FF" stroke-linecap="square"></path>
                    <path d="M34.5,46.5 L50.5,46.5" id="Shape" stroke="#5391FF" stroke-linecap="square"></path>
                    <circle id="Oval" fill="#FFBD00" fill-rule="nonzero" cx="30.5" cy="7.5" r="2"></circle>
                </g>
                <circle id="Oval" stroke="#5391FF" stroke-linecap="square" cx="18" cy="32" r="4"></circle>
                <path d="M28,49 L8,49 C8,44.582 11.582,41 16,41 L20,41 C24.418,41 28,44.582 28,49 Z" id="Shape" stroke="#5391FF" stroke-linecap="square"></path>
            </g>
        </g>
    </g>
</svg>
