<?xml version="1.0" encoding="UTF-8"?>
<svg width="146px" height="23px" viewBox="30 0 146 23" version="1.1" xmlns="http://www.w3.org/2000/svg" xmlns:xlink="http://www.w3.org/1999/xlink">
    <!-- Generator: Sketch 56.3 (81716) - https://sketch.com -->
    <title>Cap - 4,5 stars</title>
    <desc>Created with Sketch.</desc>
    <g id="Page-1" stroke="none" stroke-width="1" fill="none" fill-rule="evenodd">
        <g id="Cap---4,5-stars">
            <g id="Group-7">
                <g id="Group-7-Copy" transform="translate(31.000000, 0.000000)" fill="#c0a17c">
                    <path d="M114.826786,8.35784615 C114.826786,8.55776923 114.708929,8.77538462 114.469643,9.01069231 L109.491071,13.8212308 L110.669643,20.6168462 C110.678571,20.6805385 110.683929,20.7725385 110.683929,20.8893077 C110.683929,21.0786154 110.635714,21.2396154 110.539286,21.3705385 C110.442857,21.5032308 110.303571,21.5686923 110.121429,21.5686923 C109.948214,21.5686923 109.766071,21.5156154 109.573214,21.4059231 L103.4125,18.1983077 L97.2535714,21.4059231 C97.0535714,21.5156154 96.8696429,21.5686923 96.7053571,21.5686923 C96.5142857,21.5686923 96.3696429,21.5032308 96.2732143,21.3705385 C96.1767857,21.2396154 96.1285714,21.0786154 96.1285714,20.8893077 C96.1285714,20.8344615 96.1392857,20.7442308 96.1571429,20.6168462 L97.3375,13.8212308 L92.3428571,9.01069231 C92.1142857,8.76476923 92,8.54892308 92,8.35784615 C92,8.02346154 92.2553571,7.81469231 92.7678571,7.73330769 L99.6553571,6.74076923 L102.741071,0.557307692 C102.916071,0.185769231 103.139286,-2.27373675e-13 103.4125,-2.27373675e-13 C103.6875,-2.27373675e-13 103.9125,0.185769231 104.085714,0.557307692 L107.171429,6.74076923 L114.058929,7.73330769 C114.569643,7.81469231 114.826786,8.02346154 114.826786,8.35784615" id="Fill-10"></path>
                    <path d="M144.242744,8.74513986 L139.442776,13.6536789 L139.220762,13.8810598 L139.274114,14.2022804 L140.406556,21.1175457 C140.41344,21.1608564 140.415161,21.2258223 140.415161,21.3070298 C140.415161,21.3322943 140.41344,21.352145 140.409998,21.3719957 C140.358367,21.3593635 140.292967,21.3304897 140.212079,21.2835698 L134.112728,17.9125584 L134.112728,0.833729801 L137.091841,7.15166926 L137.229524,7.44401608 L137.537589,7.49093594 L144.167019,8.50151751 C144.277165,8.51956361 144.346006,8.54302354 144.38559,8.56106964 C144.364938,8.59896645 144.321912,8.6621278 144.242744,8.74513986 M145,8.52497744 C145,8.18210155 144.753892,7.97096219 144.259955,7.88795013 L137.623641,6.87556394 L134.64797,0.568452137 C134.481029,0.189484046 134.2659,0 134.000861,0 C133.737542,0 133.520692,0.189484046 133.35203,0.568452137 L130.37808,6.87556394 L123.741766,7.88795013 C123.247829,7.97096219 123,8.18210155 123,8.52497744 C123,8.71987532 123.111867,8.94003773 123.33216,9.19087852 L128.144176,14.097613 L127.006571,21.0291198 C126.989361,21.1590518 126.980756,21.2510869 126.980756,21.3070298 C126.980756,21.500123 127.027224,21.6643425 127.118439,21.7978837 C127.211374,21.9332294 127.350778,22 127.534929,22 C127.694986,22 127.870531,21.9440571 128.065008,21.8339759 L134.000861,18.562218 L139.936713,21.8339759 C140.120864,21.9440571 140.29813,22 140.465071,22 C140.642337,22 140.776578,21.9332294 140.869514,21.7978837 C140.960729,21.6643425 141.007197,21.500123 141.007197,21.3070298 C141.007197,21.1879255 141.003755,21.0940858 140.99515,21.0291198 L139.857545,14.097613 L144.657514,9.19087852 C144.886412,8.95086539 145,8.72889837 145,8.52497744" id="Fill-13"></path>
                    <path d="M52.8267857,8.35784615 C52.8267857,8.55776923 52.7089286,8.77538462 52.4696429,9.01069231 L47.4910714,13.8212308 L48.6696429,20.6168462 C48.6785714,20.6805385 48.6839286,20.7725385 48.6839286,20.8893077 C48.6839286,21.0786154 48.6357143,21.2396154 48.5392857,21.3705385 C48.4428571,21.5032308 48.3035714,21.5686923 48.1214286,21.5686923 C47.9482143,21.5686923 47.7660714,21.5156154 47.5732143,21.4059231 L41.4125,18.1983077 L35.2535714,21.4059231 C35.0535714,21.5156154 34.8696429,21.5686923 34.7053571,21.5686923 C34.5142857,21.5686923 34.3696429,21.5032308 34.2732143,21.3705385 C34.1767857,21.2396154 34.1285714,21.0786154 34.1285714,20.8893077 C34.1285714,20.8344615 34.1392857,20.7442308 34.1571429,20.6168462 L35.3375,13.8212308 L30.3428571,9.01069231 C30.1142857,8.76476923 30,8.54892308 30,8.35784615 C30,8.02346154 30.2553571,7.81469231 30.7678571,7.73330769 L37.6553571,6.74076923 L40.7410714,0.557307692 C40.9160714,0.185769231 41.1392857,-2.27373675e-13 41.4125,-2.27373675e-13 C41.6875,-2.27373675e-13 41.9125,0.185769231 42.0857143,0.557307692 L45.1714286,6.74076923 L52.0589286,7.73330769 C52.5696429,7.81469231 52.8267857,8.02346154 52.8267857,8.35784615" id="Fill-10-Copy-3"></path>
                    <path d="M83.8267857,8.35784615 C83.8267857,8.55776923 83.7089286,8.77538462 83.4696429,9.01069231 L78.4910714,13.8212308 L79.6696429,20.6168462 C79.6785714,20.6805385 79.6839286,20.7725385 79.6839286,20.8893077 C79.6839286,21.0786154 79.6357143,21.2396154 79.5392857,21.3705385 C79.4428571,21.5032308 79.3035714,21.5686923 79.1214286,21.5686923 C78.9482143,21.5686923 78.7660714,21.5156154 78.5732143,21.4059231 L72.4125,18.1983077 L66.2535714,21.4059231 C66.0535714,21.5156154 65.8696429,21.5686923 65.7053571,21.5686923 C65.5142857,21.5686923 65.3696429,21.5032308 65.2732143,21.3705385 C65.1767857,21.2396154 65.1285714,21.0786154 65.1285714,20.8893077 C65.1285714,20.8344615 65.1392857,20.7442308 65.1571429,20.6168462 L66.3375,13.8212308 L61.3428571,9.01069231 C61.1142857,8.76476923 61,8.54892308 61,8.35784615 C61,8.02346154 61.2553571,7.81469231 61.7678571,7.73330769 L68.6553571,6.74076923 L71.7410714,0.557307692 C71.9160714,0.185769231 72.1392857,-2.27373675e-13 72.4125,-2.27373675e-13 C72.6875,-2.27373675e-13 72.9125,0.185769231 73.0857143,0.557307692 L76.1714286,6.74076923 L83.0589286,7.73330769 C83.5696429,7.81469231 83.8267857,8.02346154 83.8267857,8.35784615" id="Fill-10-Copy-2"></path>
                    <path d="M22.8267857,8.35784615 C22.8267857,8.55776923 22.7089286,8.77538462 22.4696429,9.01069231 L17.4910714,13.8212308 L18.6696429,20.6168462 C18.6785714,20.6805385 18.6839286,20.7725385 18.6839286,20.8893077 C18.6839286,21.0786154 18.6357143,21.2396154 18.5392857,21.3705385 C18.4428571,21.5032308 18.3035714,21.5686923 18.1214286,21.5686923 C17.9482143,21.5686923 17.7660714,21.5156154 17.5732143,21.4059231 L11.4125,18.1983077 L5.25357143,21.4059231 C5.05357143,21.5156154 4.86964286,21.5686923 4.70535714,21.5686923 C4.51428571,21.5686923 4.36964286,21.5032308 4.27321429,21.3705385 C4.17678571,21.2396154 4.12857143,21.0786154 4.12857143,20.8893077 C4.12857143,20.8344615 4.13928571,20.7442308 4.15714286,20.6168462 L5.3375,13.8212308 L0.342857143,9.01069231 C0.114285714,8.76476923 0,8.54892308 0,8.35784615 C0,8.02346154 0.255357143,7.81469231 0.767857143,7.73330769 L7.65535714,6.74076923 L10.7410714,0.557307692 C10.9160714,0.185769231 11.1392857,0 11.4125,0 C11.6875,0 11.9125,0.185769231 12.0857143,0.557307692 L15.1714286,6.74076923 L22.0589286,7.73330769 C22.5696429,7.81469231 22.8267857,8.02346154 22.8267857,8.35784615" id="Fill-10-Copy-4"></path>
                </g>
            </g>
        </g>
    </g>
</svg>
