<svg xmlns="http://www.w3.org/2000/svg" width="16px" height="16px" viewBox="0 0 16 16">
	<g id="Layer_2" data-name="Layer 2">
		<g id="Layer_1-2" data-name="Layer 1">
			<path d="M5.5,10.5h2a.5.5,0,0,0,0-1h-2a.5.5,0,0,0,0,1Z"/>
			<path d="M5.5,12.5h2a.5.5,0,0,0,0-1h-2a.5.5,0,0,0,0,1Z"/>
			<path d="M5.5,8.5h2a.5.5,0,0,0,0-1h-2a.5.5,0,0,0,0,1Z"/>
			<path d="M15.67,2.53,8.67,0a.51.51,0,0,0-.46.06A.51.51,0,0,0,8,.5V3A.5.5,0,0,0,9,3V1.21l6,2.14V14.5H10V5a.5.5,0,0,0-.5-.5h-6A.5.5,0,0,0,3,5v9.5H1v-6h.5a.5.5,0,0,0,0-1H.5A.5.5,0,0,0,0,8v7a.5.5,0,0,0,.5.5h15A.5.5,0,0,0,16,15V3A.5.5,0,0,0,15.67,2.53ZM9,14.5H4v-9H9Z"/>
			<path d="M12,12V4a.5.5,0,0,0-1,0v8a.5.5,0,0,0,1,0Z"/>
			<path d="M14,12V5a.5.5,0,0,0-1,0v7a.5.5,0,0,0,1,0Z"/>
		</g>
	</g>
</svg>
