<?xml version="1.0" encoding="UTF-8"?>
<svg width="175px" height="23px" viewBox="0 0 175 23" version="1.1" xmlns="http://www.w3.org/2000/svg" xmlns:xlink="http://www.w3.org/1999/xlink">
    <!-- Generator: Sketch 56.3 (81716) - https://sketch.com -->
    <title>G2 - 5 stars</title>
    <desc>Created with Sketch.</desc>
    <defs>
        <polygon id="path-1" points="0 0.359795322 18.5108573 0.359795322 18.5108573 22.221979 0 22.221979"></polygon>
        <polygon id="path-3" points="10.9283556 9.59661806 22.0446389 9.59661806 22.0446389 18.7538924 10.9283556 18.7538924"></polygon>
    </defs>
    <g id="Page-1" stroke="none" stroke-width="1" fill="none" fill-rule="evenodd">
        <g id="G2---5-stars">
            <g id="Group-9">
                <path d="M17.5925926,3.67867868 L17.2222222,3.87387387 C16.6666667,4.26426426 15.9259259,4.84984985 15.5555556,5.43543544 C15.1851852,6.02102102 15,6.8018018 15,7.58258258 L20,7.77777778 L20,6.41141141 L16.6666667,6.41141141 C16.8518519,5.82582583 17.2222222,5.63063063 17.7777778,5.24024024 L18.3333333,4.84984985 C19.4444444,4.45945946 20,3.67867868 20,2.7027027 C20,2.11711712 19.6296296,1.53153153 19.2592593,1.14114114 C18.8888889,0.750750751 18.1481481,0.555555556 17.5925926,0.555555556 C17.037037,0.555555556 16.4814815,0.555555556 15.9259259,0.945945946 C15.5555556,1.33633634 15.1851852,1.72672673 15,2.11711712 L15.9259259,3.09309309 C16.2962963,2.31231231 16.8518519,1.92192192 17.5925926,1.92192192 C17.962963,1.92192192 18.5185185,2.31231231 18.5185185,2.7027027 C18.5185185,3.09309309 18.3333333,3.28828829 17.5925926,3.67867868" id="Fill-1" fill="#FE482B"></path>
                <mask id="mask-2" fill="white">
                    <use xlink:href="#path-1"></use>
                </mask>
                <g id="Clip-4"></g>
                <path d="M10.7191906,0.359415205 C4.48585729,0.549473684 -0.189142708,5.68105263 0.00564895833,11.762924 C0.200440625,17.8447953 5.45981563,22.4080994 11.693149,22.2161404 C14.2254406,22.2161404 16.5629406,21.457807 18.5108573,20.1254971 L15.9785656,15.9442105 C14.8098156,16.8945029 13.2514823,17.4646784 11.693149,17.4646784 L10.9139823,17.4646784 C7.40773229,17.2746199 4.68064896,14.2336842 4.87544063,10.8126316 C5.07023229,7.39157895 8.18689896,4.73076023 11.693149,4.92081871 L14.030649,0.549473684 C13.2514823,0.359415205 12.4723156,0.359415205 11.693149,0.359415205 L10.7191906,0.359415205 Z" id="Fill-3" fill="#FE482B" mask="url(#mask-2)"></path>
                <mask id="mask-4" fill="white">
                    <use xlink:href="#path-3"></use>
                </mask>
                <g id="Clip-7"></g>
                <polygon id="Fill-6" fill="#FE482B" mask="url(#mask-4)" points="10.9283556 14.2696505 16.4866889 14.2696505 19.1700222 18.7538924 22.0450222 14.2696505 19.1700222 9.59661806 13.8033556 9.59661806"></polygon>
            </g>
            <g id="Group-7" transform="translate(30.000000, 0.000000)" fill="#c0a17c">
                <g id="Group-7-Copy">
                    <path d="M114.826786,8.35784615 C114.826786,8.55776923 114.708929,8.77538462 114.469643,9.01069231 L109.491071,13.8212308 L110.669643,20.6168462 C110.678571,20.6805385 110.683929,20.7725385 110.683929,20.8893077 C110.683929,21.0786154 110.635714,21.2396154 110.539286,21.3705385 C110.442857,21.5032308 110.303571,21.5686923 110.121429,21.5686923 C109.948214,21.5686923 109.766071,21.5156154 109.573214,21.4059231 L103.4125,18.1983077 L97.2535714,21.4059231 C97.0535714,21.5156154 96.8696429,21.5686923 96.7053571,21.5686923 C96.5142857,21.5686923 96.3696429,21.5032308 96.2732143,21.3705385 C96.1767857,21.2396154 96.1285714,21.0786154 96.1285714,20.8893077 C96.1285714,20.8344615 96.1392857,20.7442308 96.1571429,20.6168462 L97.3375,13.8212308 L92.3428571,9.01069231 C92.1142857,8.76476923 92,8.54892308 92,8.35784615 C92,8.02346154 92.2553571,7.81469231 92.7678571,7.73330769 L99.6553571,6.74076923 L102.741071,0.557307692 C102.916071,0.185769231 103.139286,-2.27373675e-13 103.4125,-2.27373675e-13 C103.6875,-2.27373675e-13 103.9125,0.185769231 104.085714,0.557307692 L107.171429,6.74076923 L114.058929,7.73330769 C114.569643,7.81469231 114.826786,8.02346154 114.826786,8.35784615" id="Fill-10"></path>
                    <path d="M144.826786,8.35784615 C144.826786,8.55776923 144.708929,8.77538462 144.469643,9.01069231 L139.491071,13.8212308 L140.669643,20.6168462 C140.678571,20.6805385 140.683929,20.7725385 140.683929,20.8893077 C140.683929,21.0786154 140.635714,21.2396154 140.539286,21.3705385 C140.442857,21.5032308 140.303571,21.5686923 140.121429,21.5686923 C139.948214,21.5686923 139.766071,21.5156154 139.573214,21.4059231 L133.4125,18.1983077 L127.253571,21.4059231 C127.053571,21.5156154 126.869643,21.5686923 126.705357,21.5686923 C126.514286,21.5686923 126.369643,21.5032308 126.273214,21.3705385 C126.176786,21.2396154 126.128571,21.0786154 126.128571,20.8893077 C126.128571,20.8344615 126.139286,20.7442308 126.157143,20.6168462 L127.3375,13.8212308 L122.342857,9.01069231 C122.114286,8.76476923 122,8.54892308 122,8.35784615 C122,8.02346154 122.255357,7.81469231 122.767857,7.73330769 L129.655357,6.74076923 L132.741071,0.557307692 C132.916071,0.185769231 133.139286,0 133.4125,0 C133.6875,0 133.9125,0.185769231 134.085714,0.557307692 L137.171429,6.74076923 L144.058929,7.73330769 C144.569643,7.81469231 144.826786,8.02346154 144.826786,8.35784615" id="Fill-10-Copy"></path>
                    <path d="M52.8267857,8.35784615 C52.8267857,8.55776923 52.7089286,8.77538462 52.4696429,9.01069231 L47.4910714,13.8212308 L48.6696429,20.6168462 C48.6785714,20.6805385 48.6839286,20.7725385 48.6839286,20.8893077 C48.6839286,21.0786154 48.6357143,21.2396154 48.5392857,21.3705385 C48.4428571,21.5032308 48.3035714,21.5686923 48.1214286,21.5686923 C47.9482143,21.5686923 47.7660714,21.5156154 47.5732143,21.4059231 L41.4125,18.1983077 L35.2535714,21.4059231 C35.0535714,21.5156154 34.8696429,21.5686923 34.7053571,21.5686923 C34.5142857,21.5686923 34.3696429,21.5032308 34.2732143,21.3705385 C34.1767857,21.2396154 34.1285714,21.0786154 34.1285714,20.8893077 C34.1285714,20.8344615 34.1392857,20.7442308 34.1571429,20.6168462 L35.3375,13.8212308 L30.3428571,9.01069231 C30.1142857,8.76476923 30,8.54892308 30,8.35784615 C30,8.02346154 30.2553571,7.81469231 30.7678571,7.73330769 L37.6553571,6.74076923 L40.7410714,0.557307692 C40.9160714,0.185769231 41.1392857,-2.27373675e-13 41.4125,-2.27373675e-13 C41.6875,-2.27373675e-13 41.9125,0.185769231 42.0857143,0.557307692 L45.1714286,6.74076923 L52.0589286,7.73330769 C52.5696429,7.81469231 52.8267857,8.02346154 52.8267857,8.35784615" id="Fill-10-Copy-3"></path>
                    <path d="M83.8267857,8.35784615 C83.8267857,8.55776923 83.7089286,8.77538462 83.4696429,9.01069231 L78.4910714,13.8212308 L79.6696429,20.6168462 C79.6785714,20.6805385 79.6839286,20.7725385 79.6839286,20.8893077 C79.6839286,21.0786154 79.6357143,21.2396154 79.5392857,21.3705385 C79.4428571,21.5032308 79.3035714,21.5686923 79.1214286,21.5686923 C78.9482143,21.5686923 78.7660714,21.5156154 78.5732143,21.4059231 L72.4125,18.1983077 L66.2535714,21.4059231 C66.0535714,21.5156154 65.8696429,21.5686923 65.7053571,21.5686923 C65.5142857,21.5686923 65.3696429,21.5032308 65.2732143,21.3705385 C65.1767857,21.2396154 65.1285714,21.0786154 65.1285714,20.8893077 C65.1285714,20.8344615 65.1392857,20.7442308 65.1571429,20.6168462 L66.3375,13.8212308 L61.3428571,9.01069231 C61.1142857,8.76476923 61,8.54892308 61,8.35784615 C61,8.02346154 61.2553571,7.81469231 61.7678571,7.73330769 L68.6553571,6.74076923 L71.7410714,0.557307692 C71.9160714,0.185769231 72.1392857,-2.27373675e-13 72.4125,-2.27373675e-13 C72.6875,-2.27373675e-13 72.9125,0.185769231 73.0857143,0.557307692 L76.1714286,6.74076923 L83.0589286,7.73330769 C83.5696429,7.81469231 83.8267857,8.02346154 83.8267857,8.35784615" id="Fill-10-Copy-2"></path>
                    <path d="M22.8267857,8.35784615 C22.8267857,8.55776923 22.7089286,8.77538462 22.4696429,9.01069231 L17.4910714,13.8212308 L18.6696429,20.6168462 C18.6785714,20.6805385 18.6839286,20.7725385 18.6839286,20.8893077 C18.6839286,21.0786154 18.6357143,21.2396154 18.5392857,21.3705385 C18.4428571,21.5032308 18.3035714,21.5686923 18.1214286,21.5686923 C17.9482143,21.5686923 17.7660714,21.5156154 17.5732143,21.4059231 L11.4125,18.1983077 L5.25357143,21.4059231 C5.05357143,21.5156154 4.86964286,21.5686923 4.70535714,21.5686923 C4.51428571,21.5686923 4.36964286,21.5032308 4.27321429,21.3705385 C4.17678571,21.2396154 4.12857143,21.0786154 4.12857143,20.8893077 C4.12857143,20.8344615 4.13928571,20.7442308 4.15714286,20.6168462 L5.3375,13.8212308 L0.342857143,9.01069231 C0.114285714,8.76476923 0,8.54892308 0,8.35784615 C0,8.02346154 0.255357143,7.81469231 0.767857143,7.73330769 L7.65535714,6.74076923 L10.7410714,0.557307692 C10.9160714,0.185769231 11.1392857,0 11.4125,0 C11.6875,0 11.9125,0.185769231 12.0857143,0.557307692 L15.1714286,6.74076923 L22.0589286,7.73330769 C22.5696429,7.81469231 22.8267857,8.02346154 22.8267857,8.35784615" id="Fill-10-Copy-4"></path>
                </g>
            </g>
        </g>
    </g>
</svg>