<?xml version="1.0" encoding="UTF-8"?>
<svg width="20px" height="21px" viewBox="0 0 20 21" version="1.1" xmlns="http://www.w3.org/2000/svg" xmlns:xlink="http://www.w3.org/1999/xlink">
    <g id="Symbols" stroke="none" stroke-width="1" fill="none" fill-rule="evenodd">
        <g id="Header" transform="translate(-1318.000000, -50.000000)" stroke="#000000">
            <g id="Group-2" transform="translate(1319.000000, 51.000000)">
                <path d="M9,18.5069977 C7.21577259,17.0644891 7.25692477,12.421307 10.0663084,11.320517 C11.5571133,10.7364058 12.0400758,13.9968581 14.9642769,13.1812894 C15.5301631,13.0236432 16.8624105,13.8264544 16.3776255,15.0511743" id="Path" stroke-linecap="round" stroke-linejoin="round"></path>
                <path d="M3.63327743,1.68751104 C4.20827615,2.11215352 4.70308487,2.63156599 5.12590485,3.34051845 C5.49496108,3.95925717 6.31599728,5.68243083 5.56421607,6.65564578 C4.71310862,7.75552447 2.25,8.1264032 2.25,9.1406244 C2.25,9.90334061 3.32983119,10.7744956 3.90665241,11.625603 C4.77416237,12.9059092 4.37959114,14.1470316 3.90665241,14.9389078 C3.66152618,15.3498816 3.2496412,15.6824878 2.81497497,15.9440165" id="Path" stroke-linecap="round" stroke-linejoin="round"></path>
                <circle id="Oval" cx="9" cy="9" r="9.5"></circle>
            </g>
        </g>
    </g>
</svg>