<svg width="200px" height="41px" viewBox="0 0 200 41" xmlns="http://www.w3.org/2000/svg" xmlns:xlink="http://www.w3.org/1999/xlink">
	<g stroke="none" stroke-width="1" fill="none" fill-rule="evenodd">
		<g transform="translate(-40.000000, -36.000000)">
			<g transform="translate(109.000000, 48.000000)">
				<g>
					<path d="M95.9849995,2.78718182 C98.0420155,2.78718182 99.0032676,3.37821212 99.5346429,3.80963636 C100.428463,4.53483333 101.208493,5.8374697 101.208493,8.1604697 L101.208493,22.5239697 L98.1080424,22.5239697 L98.1080424,8.97557576 C98.1080424,6.91707576 97.0063078,5.82387879 94.9766858,5.82387879 C92.9017582,5.82387879 91.8453292,6.91707576 91.8453292,8.97557576 L91.8453292,22.5239697 L88.7494445,22.5239697 L88.7887796,2.78718182 L95.9849995,2.78718182 Z" class="fill"></path>
					<path d="M41.5431906,2.78718182 L34.347322,2.78718182 L34.3079869,22.5239697 L37.4038716,22.5239697 L37.4038716,8.97557576 C37.4038716,6.91707576 38.4599493,5.82387879 40.5355794,5.82387879 C42.5652013,5.82387879 43.6669359,6.91707576 43.6669359,8.97557576 L43.6669359,22.5239697 L46.7673863,22.5239697 L46.7673863,8.1604697 C46.7673863,5.8374697 45.9866544,4.53483333 45.092834,3.80963636 C44.5614587,3.37821212 43.6002067,2.78718182 41.5431906,2.78718182" class="fill"></path>
					<mask class="fill">
						<use xlink:href="#path-1"></use>
					</mask>
					<g></g>
					<polygon class="fill" mask="url(#mask-2)" points="80.4887882 22.5238303 83.5537668 22.5238303 83.5537668 2.77589091 80.4887882 2.77589091"></polygon>
					<path d="M54.4657962,0 L51.3063432,0 C51.3063432,0 51.2884316,13.7278636 51.2979142,16.5979848 C51.3123137,21.5116212 55.2366944,22.5347727 57.9764558,22.5424394 C57.9852359,22.5424394 59.8691072,22.5347727 59.8691072,22.5347727 L59.8613807,19.5440758 L59.4985845,19.5461667 C56.0269088,19.5461667 54.4440214,18.8056364 54.4440214,15.9874394 L54.4440214,12.7318939 L54.4657962,12.7318939 L54.4657962,7.9625303 C54.4657962,6.54524242 55.161185,5.71898485 56.7356434,5.71898485 L59.9123056,5.71898485 L59.9123056,2.80251515 L54.4657962,2.80251515 L54.4657962,0 Z" class="fill" mask="url(#mask-2)"></path>
					<path d="M108.78686,8.16573182 C108.78686,6.18285303 109.76778,5.26982273 111.893632,5.26982273 C113.772938,5.26982273 114.713469,6.34942879 114.713469,8.01414091 L114.713469,9.14706515 C114.713469,10.6134894 113.835453,10.7347621 112.532828,11.0428227 C111.228799,11.3512318 108.78686,11.8136712 108.78686,11.8136712 L108.78686,8.16573182 Z M114.447254,13.4512015 C116.94082,12.6998682 117.859225,11.5320955 117.859225,9.19097424 L117.859225,7.31089848 C117.859225,4.4170803 115.676477,2.58509545 111.496418,2.59032273 C108.512568,2.59485303 105.736281,4.17453485 105.736281,6.79061061 L105.736281,17.5033833 C105.736281,19.0450803 106.022514,20.2212167 106.808514,21.0481712 C107.76204,22.0521561 109.210766,22.5403833 111.483423,22.5403833 C114.960367,22.5403833 117.563509,21.5186258 117.563509,21.5186258 L116.707619,18.972247 C116.707619,18.972247 114.435665,19.8089591 111.551206,19.8089591 C109.675764,19.8089591 108.78686,19.2099136 108.78686,17.4260197 L108.78686,14.6740348 L114.447254,13.4512015 Z" class="fill" mask="url(#mask-2)"></path>
					<path d="M72.1173614,17.5355136 C72.1173614,19.505847 71.1420611,20.4098167 69.027096,20.4098167 C67.1565705,20.4098167 65.6509485,19.6236348 65.6509485,17.9697258 L65.6509485,16.7883621 C65.6509485,15.3285591 66.6641791,14.6497106 68.0447716,14.4096045 L72.1173614,13.4509227 L72.1173614,17.5355136 Z M75.2515276,8.16893788 C75.2515276,4.73357424 73.3810021,2.7771803 69.4351979,2.79739242 C67.0564767,2.80924091 65.1427528,2.80924091 65.1427528,2.80924091 L65.1427528,5.72675606 L69.3407233,5.72675606 C71.1729673,5.72675606 72.1173614,6.42686212 72.1173614,8.20169545 L72.1173614,10.5480439 L66.4657475,11.9419833 C63.9848252,12.6912258 62.8124981,14.0820288 62.8124981,16.4029379 L62.8124981,18.2446803 C62.8124981,21.1210742 65.7889727,22.816453 68.7092542,22.816453 C71.4743024,22.816453 72.7537475,21.86265 72.7537475,21.86265 C72.7537475,22.2501652 73.3546617,22.5237258 73.3546617,22.5237258 L75.9887099,22.5348773 C75.9887099,22.5348773 75.2515276,20.826953 75.2515276,19.4912106 L75.2515276,8.16893788 Z" class="fill" mask="url(#mask-2)"></path>
					<path d="M7.51251635,12.13365 C7.54342252,9.15689242 14.9468542,2.77230152 14.9468542,2.77230152 L9.99554584,2.77230152 L3.08415442,12.2545742 L3.08415442,2.78658939 L-0.000140482574,2.78658939 L-0.000140482574,22.5313924 L3.08415442,22.5387106 L3.08415442,12.2754833 L10.5820606,22.5150136 L15.2878756,22.5150136 C15.2878756,22.5150136 7.48336622,14.9974985 7.51251635,12.13365" class="fill" mask="url(#mask-2)"></path>
					<path d="M121.426534,2.76421667 L121.426534,22.5375955 L124.634805,22.5375955 L124.634805,9.85867121 C124.634805,6.70871667 126.310411,5.7765197 129.930998,5.7765197 L130.667478,5.7765197 L130.667478,2.76421667 L121.426534,2.76421667 Z" class="fill" mask="url(#mask-2)"></path>
					<path d="M26.4584528,16.8058909 C26.4584528,18.8403455 25.4304716,19.7774212 23.294434,19.7774212 C21.1594501,19.7774212 19.9681579,18.8403455 19.9681579,16.8058909 L19.9681579,8.67260303 C19.9681579,6.68205758 21.0786727,5.62266364 23.2133054,5.62266364 C25.3475869,5.62266364 26.4584528,6.68205758 26.4584528,8.67260303 L26.4584528,16.8058909 Z M23.2133054,2.63684545 C18.7947772,2.63684545 16.6464475,4.55246667 16.6464475,8.42831515 L16.6464475,16.9721182 C16.6464475,20.8904818 18.7947772,22.7635879 23.2133054,22.7635879 C27.6356968,22.7635879 29.7801633,20.8904818 29.7801633,16.9721182 L29.7801633,8.42831515 C29.7801633,4.55246667 27.6356968,2.63684545 23.2133054,2.63684545 Z" class="fill" mask="url(#mask-2)"></path>
				</g>
			</g>
			<g transform="translate(40.000000, 36.000000)">
				<g transform="translate(0.000000, 12.058824)">
					<mask class="fill">
						<use xlink:href="#path-3"></use>
					</mask>
					<g></g>
					<path d="M9.59294824,25.6613908 C7.19147765,24.9207111 5.41176471e-05,19.4017895 5.41176471e-05,8.30633203 C5.41176471e-05,4.25671111 3.13265412,2.41090719 8.37854824,1.33177647 C18.3524306,-0.720099346 30.3332659,-0.543772549 38.6838894,5.23427974 C42.4131365,7.81486797 45.9711012,10.8839725 45.9711012,13.5318222 C45.9711012,16.8686327 43.1345247,19.6952209 38.9855953,22.9109072 C34.3563718,26.4990771 28.0746659,28.1535477 21.8032424,28.0694039 C16.79736,28.0024105 13.3037953,26.8059072 9.59294824,25.6613908" class="fill" mask="url(#mask-4)"></path>
				</g>
				<g transform="translate(9.684211, 4.823529)">
					<mask class="fill">
						<use xlink:href="#path-5"></use>
					</mask>
					<g></g>
					<path d="M13.1419443,36.1764984 C8.57470772,36.1764984 1.31100679,35.0386093 0.325117954,33.2556658 C0.161391441,32.9598536 0.13233881,32.6779554 0.2330727,32.3676726 C0.292264043,32.1862337 0.347925627,32.0067428 0.403044171,31.8294781 C0.668047614,30.9757133 0.918117462,30.1692563 1.45436931,29.4860776 C1.89396006,28.9256206 2.36857688,28.4277767 3.17309041,28.0841002 C3.30939341,28.0259396 4.01887496,27.8620324 4.01887496,27.8620324 C4.01887496,27.8620324 4.3914003,27.2765301 4.85026896,27.0742201 C6.7275577,26.2468921 10.9078784,26.0189803 12.1715321,25.9836387 C12.4664028,25.9755686 12.4954554,25.7821636 12.4943693,25.7000708 L12.5465011,25.6936704 C12.5014288,25.5954373 12.2054721,25.2634486 12.2054721,25.0792269 C12.2054721,24.6117156 12.3379738,24.4472518 12.4093836,24.3587586 L12.946993,24.1372473 L12.5350973,24.0601636 C12.5033295,24.0220391 12.4104697,23.8762201 12.374086,23.4437722 C12.3472055,23.1234713 12.4669458,22.5769283 12.4683034,22.5738672 L12.606507,22.223512 L12.2394121,22.1920663 C5.46227486,21.6076771 3.75305696,19.1279192 3.73649424,19.100926 L3.44895465,18.5744192 C3.44895465,18.5744192 3.09733635,18.7483446 3.00773478,18.7483446 C2.37998072,18.7483446 1.35797973,18.2710934 1.33327142,17.7039577 C1.27951048,16.4647744 1.29145735,7.1930233 1.31698023,6.79869977 C1.41255524,5.32130837 3.21137472,4.3125414 3.77233487,4.30864548 L3.96457098,4.53015679 L4.16169444,4.24297127 C4.5673452,3.65245995 8.81391677,1.12678575 15.5117702,1.12678575 C20.7529192,1.12678575 24.2411357,2.34092376 25.8536925,3.06473145 L26.2235026,3.23058665 L26.2924687,0.565772172 C26.2978991,0.374593439 26.2981706,0.365410181 26.3967323,0.278586652 C26.5246182,0.198998416 26.7505228,0.0890776018 26.8675479,0.0876861991 L26.8680909,0.0876861991 C27.0318174,0.0876861991 26.9780565,0.00392375566 27.0804195,0.0846251131 C27.2408878,0.212355882 27.2742847,0.289439593 27.2756423,0.372088914 C27.278629,0.675414706 27.3087677,3.82555045 27.3087677,3.82555045 L27.4244352,3.90764321 C28.5094288,4.67848032 29.0429655,5.59736267 29.0397072,6.71271109 C29.0391642,6.78868167 28.8800535,15.2845867 28.8121735,16.3267473 L28.8021273,16.4873152 C28.7426644,17.4437654 28.6807579,18.4324962 27.7809409,19.0341387 C26.6484313,19.7907835 24.3035852,21.2678966 19.9584519,21.736521 L19.60439,21.7746455 L19.7341765,22.1152609 C19.8446851,22.4038378 19.9228828,23.4131613 19.522934,23.6794758 L19.1971101,23.8965346 L19.5080004,24.1352993 C19.509358,24.136969 19.6100919,24.462279 19.6348002,24.8677337 C19.6448464,25.0335889 19.4642857,25.3152088 19.33287,25.4618627 L19.1352035,25.8998762 L19.733905,25.9140686 C21.2234633,25.9480188 24.8205592,26.4135821 26.7836482,27.3822767 C27.1138164,27.5450708 27.5536787,28.3813038 27.7727953,31.4398853 L27.7847422,31.6054622 C27.6758627,32.2950414 22.1289822,36.1058152 13.3233196,36.1756636 L13.1419443,36.1764984 Z" class="fill" mask="url(#mask-6)"></path>
				</g>
				<path d="M38.3492039,21.7007131 C38.3335788,22.5273658 37.8176753,23.243435 37.1123513,23.7233566 C35.9892607,24.4868187 33.7521256,26.1082564 26.2249238,26.2635091 C18.8937215,26.4165829 16.8865774,25.165028 15.4082206,24.48927 C14.1425849,23.910477 13.6921973,23.1028904 13.6847959,22.5404397 C13.6782169,21.977989 13.7149497,22.3993504 13.7286559,17.7869825 C13.7418139,13.1754316 13.7823845,12.0807637 13.801025,11.6422428 C13.8503675,10.516252 14.5266342,9.25761539 16.1554856,8.61127377 C18.1779808,7.8107689 20.789845,6.75804644 25.2934466,6.83975841 C31.261973,6.94925244 35.6540057,8.23185788 37.7041875,9.87127224 C38.1597834,10.1760579 38.4947643,10.8466407 38.5221768,11.1511539 C38.5479446,11.4325155 38.4232177,17.8676049 38.3492039,21.7007131 M29.5171665,27.3363872 C29.4946883,27.5164259 29.4683723,27.7444023 29.4472646,27.9249857 C29.4269794,28.1014836 29.2699057,28.2322227 29.0220966,28.2414834 C28.8145838,28.249927 24.4995803,28.3349074 23.1125072,28.3626895 C22.8452352,28.3684093 22.6843237,28.1951799 22.7054313,27.9721063 C22.7216047,27.7977874 22.7202341,27.6599666 22.7251684,27.5733519 C22.7358592,27.3965817 22.9250056,27.1879438 23.2268173,27.1754146 C24.6454148,27.1171268 27.2038246,27.1171268 29.0533468,26.9087613 C29.2293352,26.888878 29.5610266,26.9852981 29.5171665,27.3363872 M29.2361883,29.3573964 C29.2254974,29.4554508 29.2079534,29.5654896 29.1887646,29.6681743 C29.1492906,29.8773569 29.0086644,30.0538547 28.7427631,30.0789131 C26.9296995,30.2494187 24.7366985,30.1587184 23.0431535,30.294905 C22.722153,30.3205081 22.5436975,30.1235823 22.5409563,29.9043218 L22.5500024,29.6719875 C22.5571297,29.4600811 22.7575151,29.2282915 23.0831758,29.2105873 C24.5727717,29.1307819 27.706296,28.9782529 28.8858564,28.9213269 C29.0588293,28.9131557 29.2652456,29.087747 29.2361883,29.3573964 M13.4389057,10.3255907 C13.3174682,10.7469521 13.2133007,11.1021268 13.2215245,11.8056668 C13.2256363,12.1257053 13.1853399,12.0603357 13.1825987,17.5829749 C13.1817763,19.1188875 13.1376422,21.3537097 13.1140674,22.3732026 C13.0910409,23.357287 12.5737668,23.0955363 12.1247498,22.8196223 C11.9493098,22.7114901 11.7448124,22.6109844 11.629954,22.3391559 C11.4073644,21.8112966 11.5444269,13.2661319 11.586094,11.9037211 C11.5976072,11.5441885 11.7735956,11.1827492 12.171077,10.8488197 C12.5033166,10.5699095 12.5310033,10.5225166 13.0367641,10.2367971 C13.1853399,10.1526338 13.507437,10.0905327 13.4389057,10.3255907 M11.6699763,34.1533439 C12.0633458,33.5516715 12.4898845,33.3713604 12.8640653,33.1235008 C13.3355605,32.810544 13.5356718,32.8685595 13.430956,33.7611265 C13.3067774,34.8192964 12.8421353,37.5367639 12.7796348,37.8344678 C12.6905441,38.2580082 12.7884068,38.5224826 13.1192758,38.5804981 C13.6036549,38.6654785 13.6801358,38.0224054 13.6801358,38.0224054 C13.6801358,38.0224054 14.379429,33.3430336 14.4227407,33.0349795 C14.4570064,32.7914779 14.5482901,32.3714784 14.9252121,32.1445915 C15.3840976,31.8684051 15.8961633,31.701985 17.2270408,31.5486389 C19.2572114,31.3152151 23.1958412,30.7571224 27.193682,30.8331145 C33.7063467,30.9570443 35.3705603,31.5205845 35.876047,31.6706621 C36.2315873,31.7757982 36.8250682,32.1279767 37.0142145,32.4025289 C37.2030868,32.6787154 37.2655873,35.2215916 37.2655873,35.3959105 C37.2702474,35.529101 37.3955226,36.5396056 38.0487628,36.0599564 C38.4429547,35.7704237 38.117294,33.8978578 37.8261732,32.3488714 C37.7444839,31.9144361 37.3947002,31.5001565 37.0380634,31.3274719 C35.0388689,30.3597298 31.2471702,30.1358391 29.7052164,30.1017924 C29.7052164,30.1017924 30.1043426,29.6728046 30.0821384,29.3187194 C30.0478728,28.773973 29.7737477,28.5696931 29.7737477,28.5696931 C30.4590605,28.1270866 29.9450759,26.8333139 29.9450759,26.8333139 C33.8513589,26.4247541 36.5926101,25.3012146 38.1688296,24.279815 C39.2472378,23.5809054 39.2653301,22.4412959 39.3338613,21.4198963 C39.4023926,20.3984968 39.5438412,11.7560948 39.5438412,11.7016202 C39.5485013,10.25205 38.6704785,9.33088379 37.8031466,8.73356934 C37.8031466,8.73356934 37.7740894,5.7905768 37.771074,5.49205576 C37.7672363,5.2771533 37.6389457,5.13225075 37.4670692,4.999605 C37.3442612,4.90563624 37.157582,4.81983868 36.8977114,4.82365191 C36.6381149,4.82664801 36.26366,5.06197847 36.26366,5.06197847 C36.0764325,5.22104442 36.0550507,5.26870973 36.0462787,5.55715296 L35.987616,7.76010748 C34.1005386,6.93917463 30.5766601,5.84069347 25.4362658,5.84069347 C18.5461309,5.84069347 14.1828813,8.61835547 13.7489412,9.23119519 C13.5660997,9.02691528 12.5737668,9.45835445 11.873103,10.046953 C11.4334063,10.4154739 10.9577992,10.9888195 10.8352653,11.6185464 C10.768927,11.9601024 10.8020961,21.3291961 10.847875,22.3503232 C10.8884455,23.257326 12.8580345,24.3026944 13.3150011,23.8486483 C13.3150011,23.8486483 15.0504873,26.6404737 22.1094833,27.230434 C22.1094833,27.230434 21.962004,27.5921457 21.9954473,27.9794604 C22.0639786,28.773973 22.3381037,28.8194593 22.3381037,28.8194593 C22.2539473,28.9207822 22.0639786,29.1370465 22.0639786,29.7046723 C22.0639786,30.0642049 22.2465459,30.4308192 22.3150772,30.4308192 C22.6037309,30.4308192 16.9696373,30.4991849 14.6853526,31.4750981 C14.0811808,31.7330356 13.9542609,32.2241245 13.9542609,32.2241245 C13.8857296,32.2241245 13.6332604,32.0203893 13.0863808,32.2467314 C12.208358,32.6103497 11.4896019,33.1322167 11.0304423,33.6995701 C10.3426624,34.5491022 10.1074631,35.542992 9.75110039,36.6047028 C9.61403783,37.0132626 9.67736073,37.52369 10.0367388,37.6296432 C10.4457335,37.7505769 10.6647594,37.6034954 10.801822,37.2404219 C10.801822,37.2404219 11.0759471,35.0614362 11.6699763,34.1533439" class="fill"></path>
				<path d="M22.7764573,23.0468325 C23.3399008,23.2131039 24.9521006,23.3481993 25.9485191,23.3058892 C27.3986975,23.2439086 28.2751652,22.7799819 28.8205785,22.4901205 C29.0572248,22.3643036 29.0492114,22.0295341 29.0492114,22.0295341 L29.0524668,21.1952083 C29.0524668,21.1952083 29.0682432,20.8240669 28.791029,20.9168523 C28.2794223,21.0879484 27.2762424,21.6357531 26.0319087,21.6357531 C24.8694622,21.6357531 23.3306353,21.2145076 22.8358067,21.0864639 C22.7163567,21.0556591 22.6387267,21.3380977 22.6387267,21.3380977 L22.5979083,22.6352368 C22.5979083,22.6352368 22.5686093,22.9852231 22.7764573,23.0468325" class="fill"></path>
				<path d="M19.9760537,15.0397729 C19.7028857,15.3361992 19.599938,15.9386784 19.3991391,15.6830811 C19.2207645,15.4566951 19.5181405,14.8459173 19.6960055,14.6215229 C19.8748898,14.3977924 20.395489,14.2251813 20.5730992,14.465841 C20.7494353,14.7035132 20.2293458,14.7659187 19.9760537,15.0397729 M20.5613774,13.6668507 C19.4829752,13.6841119 18.548292,14.6749659 18.5615427,16.0419131 C18.5745386,17.4075324 19.3522521,18.5069323 20.4301447,18.4900032 C21.5065083,18.472742 22.6093734,17.6282754 22.5963775,16.262988 C22.5831268,14.895377 21.6374863,13.6492577 20.5613774,13.6668507" class="fill"></path>
				<path d="M30.3783947,15.0700941 C30.0940127,15.3607031 29.9849419,15.9520092 29.7761114,15.7017536 C29.589627,15.4791595 29.9003456,14.8797176 30.0862979,14.6607033 C30.2727823,14.4410381 30.8162738,14.2718146 31.00196,14.5071004 C31.1855181,14.7407591 30.6422926,14.8019399 30.3783947,15.0700941 M31.0796397,13.6668403 C29.955147,13.6827864 29.0389528,14.4381092 29.0527862,15.7779042 C29.0668856,17.1176992 29.7899448,18.5072849 30.9149695,18.4900371 C32.038132,18.4731148 33.1003746,17.5514973 33.0876053,16.2120277 C33.074038,14.8722328 32.2033343,13.649918 31.0796397,13.6668403" class="fill"></path>
				<g transform="translate(34.701754, 0.000000)" class="fill">
					<path d="M0.991911028,0.820717787 C1.16657268,0.686922269 1.77529449,0.462111345 1.80094612,0.738602941 C1.81305138,0.870388655 1.35362782,0.996719188 1.16426692,1.12994048 C0.852412281,1.3490091 0.678327068,1.78226541 0.549780702,1.58042367 C0.447750627,1.41992647 0.65872807,1.07567577 0.991911028,0.820717787 M1.8960589,3.92328081 C3.01320175,3.91007353 3.97009398,3.11993347 3.95654762,2.03435224 C3.94271303,0.948771008 2.96564536,0.178154762 1.84792607,0.190787815 C0.730494987,0.204856443 0.0575,1.01882703 0.0707581454,2.10469538 C0.0843045113,3.1899895 0.777763158,3.93734944 1.8960589,3.92328081"></path>
				</g>
			</g>
		</g>
	</g>
</svg>
