<?xml version="1.0" encoding="UTF-8"?>
<svg width="63px" height="46px" viewBox="0 0 63 46" version="1.1" xmlns="http://www.w3.org/2000/svg" xmlns:xlink="http://www.w3.org/1999/xlink">
    <!-- Generator: Sketch 56.3 (81716) - https://sketch.com -->
    <title>Stroke 1</title>
    <desc>Created with Sketch.</desc>
    <g id="1440px" stroke="none" stroke-width="1" fill="none" fill-rule="evenodd">
        <g id="Citat" transform="translate(-914.000000, -366.000000)" fill="#c0a17c">
            <g id="Group-Copy-2" transform="translate(81.000000, 366.000000)">
                <path d="M866,40.4946594 C875.732137,36.7613378 883.679438,30.8613203 883.679438,23.1953248 C883.679438,17.2993346 879.307914,15.9219926 873.747856,13.566013 C871.759504,12.7766591 871.161167,10.4146384 871.360612,8.84599895 C871.558023,3.53598319 876.131028,0 881.298301,0 C888.447819,0 896.195675,6.28865348 895.996229,17.8853091 C895.804924,33.0260025 880.103661,42.8566801 867.984281,46 L866,40.4946594 Z M833,40.4946594 C842.736261,36.7613378 850.67991,30.8613203 850.67991,23.1953248 C850.67991,17.2993346 846.309275,15.9219926 840.752383,13.566013 C838.762401,12.7766591 838.166221,10.4146384 838.365626,8.84599895 C838.562996,3.53598319 843.133037,0 848.299257,0 C855.449356,0 863.195635,6.28865348 862.99623,17.8853091 C862.796825,33.0260025 847.106896,42.8566801 834.989982,46 L833,40.4946594 Z" id="Stroke-1"></path>
            </g>
        </g>
    </g>
</svg>