<?xml version="1.0" standalone="no"?>
<!DOCTYPE svg PUBLIC "-//W3C//DTD SVG 20010904//EN"
 "http://www.w3.org/TR/2001/REC-SVG-20010904/DTD/svg10.dtd">
<svg version="1.0" xmlns="http://www.w3.org/2000/svg"
 width="800.000000pt" height="800.000000pt" viewBox="0 0 800.000000 800.000000"
 preserveAspectRatio="xMidYMid meet">
<metadata>
Created by potrace 1.14, written by Peter Selinger 2001-2017
</metadata>
<g transform="translate(0.000000,800.000000) scale(0.100000,-0.100000)"
fill="#000000" stroke="none">
<path d="M970 7845 c-91 -17 -131 -28 -235 -68 -77 -29 -93 -37 -180 -88 -97
-56 -239 -181 -300 -264 -17 -22 -32 -42 -35 -45 -16 -15 -73 -111 -104 -174
-43 -91 -75 -185 -92 -271 -2 -11 -8 -42 -13 -70 -7 -32 -10 -1071 -10 -2865
1 -3080 -3 -2882 61 -3075 71 -213 233 -433 408 -555 19 -13 37 -27 40 -31 10
-14 197 -108 255 -128 91 -31 173 -51 240 -59 78 -9 5936 -9 5995 0 25 4 56 9
70 12 14 3 39 9 55 12 17 3 35 9 40 12 6 4 17 8 26 9 9 1 29 8 45 14 16 7 32
13 37 14 4 2 9 4 12 5 3 1 8 3 13 4 19 5 137 70 140 77 2 5 8 9 14 9 11 0 96
60 142 100 98 85 193 198 237 280 13 25 27 47 30 50 6 5 50 98 54 115 2 6 14
39 27 75 13 36 24 72 23 80 -1 8 2 22 6 30 4 8 11 38 15 65 11 60 12 5701 2
5765 -31 192 -116 384 -239 540 -51 65 -155 170 -169 170 -6 0 -10 4 -10 9 0
9 -109 84 -180 123 -61 33 -198 88 -221 88 -11 0 -19 4 -19 8 0 4 -8 8 -17 9
-10 1 -31 4 -48 7 -16 3 -57 10 -90 15 -37 6 -1202 10 -3005 9 -2420 0 -2958
-2 -3020 -13z m2075 -1277 c4 -4 7 -734 7 -1622 0 -889 2 -1616 5 -1616 5 0
15 10 148 156 50 54 106 115 125 135 19 20 76 81 125 134 50 54 104 113 120
131 17 17 68 73 115 124 47 51 105 115 130 141 25 27 74 80 110 120 36 39 85
92 110 119 25 26 77 83 117 126 39 44 88 97 110 120 21 22 81 87 133 144 52
57 118 128 147 159 l52 56 775 1 776 0 -23 -25 c-12 -13 -29 -32 -37 -41 -82
-89 -192 -210 -211 -231 -21 -24 -148 -162 -219 -239 -14 -15 -59 -65 -100
-110 -41 -46 -88 -97 -105 -115 -143 -152 -255 -278 -255 -287 0 -5 -7 -8 -15
-8 -8 0 -15 -4 -15 -8 0 -7 -69 -87 -145 -167 -16 -18 -64 -69 -105 -115 -41
-45 -88 -97 -105 -114 -16 -18 -68 -75 -115 -126 -47 -52 -97 -107 -112 -122
-16 -15 -28 -29 -28 -32 0 -2 -15 -19 -33 -37 -17 -19 -70 -76 -117 -128 -47
-51 -96 -105 -110 -120 -22 -23 -74 -80 -255 -279 -22 -24 -53 -59 -70 -77
-16 -18 -68 -74 -115 -125 -47 -51 -96 -105 -110 -120 -34 -37 -161 -176 -204
-224 -20 -22 -36 -44 -36 -50 0 -5 -3 -7 -6 -3 -3 3 -24 -15 -46 -41 -23 -26
-68 -77 -102 -113 -33 -37 -92 -101 -131 -144 -38 -42 -80 -88 -92 -101 l-22
-24 -651 0 -650 0 0 2449 0 2450 23 3 c42 6 1206 2 1212 -4z m2633 -3500 c6
-1 12 -5 12 -10 0 -5 5 -6 10 -3 23 15 280 -93 280 -117 0 -4 6 -8 13 -8 15 0
105 -85 157 -148 50 -61 94 -146 126 -243 23 -72 27 -101 28 -209 1 -169 -10
-224 -72 -352 -45 -93 -54 -105 -132 -190 -69 -75 -176 -147 -277 -186 -101
-39 -125 -43 -263 -47 -175 -6 -318 37 -453 136 -70 50 -177 159 -177 179 0 6
-4 10 -8 10 -11 0 -88 155 -107 217 -48 154 -35 364 31 514 59 134 189 289
286 340 13 6 25 15 28 18 10 12 116 59 170 75 30 10 80 19 110 23 30 3 56 6
58 8 3 3 95 -1 180 -7z"/>
</g>
</svg>
