<svg width="61px" height="55px" viewBox="0 0 61 55" xmlns="http://www.w3.org/2000/svg">
	<g id="1440px" stroke="none" stroke-width="1" fill="none" fill-rule="evenodd" stroke-linecap="square">
		<g id="Hvorfor-Kontainer" transform="translate(-690.000000, -4649.000000)">
			<g id="folder-cloud" transform="translate(690.000000, 4649.000000)">
				<path d="M56.5,54.5 L4.5,54.5 C2.291,54.5 0.5,52.709 0.5,50.5 L0.5,0.5 L22.5,0.5 L28.5,8.5 L60.5,8.5 L60.5,50.5 C60.5,52.709 58.709,54.5 56.5,54.5 Z" id="Shape" stroke="#FFBD00"></path>
				<path d="M41.5,31.5 C41.154,31.5 40.816,31.535 40.49,31.602 C40.49,31.567 40.5,31.535 40.5,31.5 C40.5,25.977 36.023,21.5 30.5,21.5 C24.977,21.5 20.5,25.977 20.5,31.5 C20.5,31.535 20.51,31.567 20.51,31.602 C20.184,31.535 19.846,31.5 19.5,31.5 C16.739,31.5 14.5,33.739 14.5,36.5 C14.5,39.261 16.739,41.5 19.5,41.5 C20.417,41.5 40.583,41.5 41.5,41.5 C44.261,41.5 46.5,39.261 46.5,36.5 C46.5,33.739 44.261,31.5 41.5,31.5 Z" id="Shape" stroke="#5391FF"></path>
			</g>
		</g>
	</g>
</svg>
