<svg width="62px" height="56px" viewBox="0 0 62 56" xmlns="http://www.w3.org/2000/svg">
	<g id="1440px" stroke="none" stroke-width="1" fill="none" fill-rule="evenodd">
		<g id="Hvorfor-Kontainer" transform="translate(-690.000000, -3242.000000)">
			<g id="web-design" transform="translate(690.000000, 3242.000000)">
				<path d="M0.5,17.5 L38.512,17.5" id="Shape" stroke="#FFBD00"></path>
				<polyline id="Shape" stroke="#FFBD00" points="60.5 14.5 60.5 55.5 0.5 55.5 0.5 3.5 52.533 3.5"></polyline>
				<path d="M8.5,10.5 L12.5,10.5" id="Shape" stroke="#5391FF" stroke-linecap="square"></path>
				<path d="M18.5,10.5 L22.5,10.5" id="Shape" stroke="#5391FF" stroke-linecap="square"></path>
				<path d="M30.348,25.652 L54.5,1.536 C55.881,0.155 58.119,0.155 59.5,1.536 C60.881,2.917 60.881,5.155 59.5,6.536 L35.349,30.651" id="Shape" stroke="#5391FF"></path>
				<path d="M33.58,27.42 C32.342,26.182 30.697,25.5 28.946,25.5 C27.195,25.5 25.549,26.182 24.312,27.42 C21.851,29.88 21.5,39.5 21.5,39.5 C21.5,39.5 31.12,39.149 33.58,36.689 C34.818,35.451 35.5,33.805 35.5,32.055 C35.5,30.305 34.818,28.658 33.58,27.42 Z" id="Shape" stroke="#5391FF" stroke-linecap="square"></path>
				<path d="M8.5,47.5 L52.5,47.5" id="Shape" stroke="#5391FF" stroke-linecap="square"></path>
			</g>
		</g>
	</g>
</svg>
