<svg width="94px" height="47px" viewBox="0 0 94 47" xmlns="http://www.w3.org/2000/svg">
    <g id="1440px" stroke="none" stroke-width="1" fill="none" fill-rule="evenodd">
        <g id="Technical-features" transform="translate(-673.000000, -3410.000000)">
            <g id="Group-3" transform="translate(673.000000, 3410.000000)">
                <g id="dashboard-half" transform="translate(33.000000, 0.000000)">
                    <path d="M30.5,6.5 L30.5,10.5" id="Shape" stroke="#5391FF"></path>
                    <path d="M47.471,13.529 L44.642,16.358" id="Shape" stroke="#5391FF"></path>
                    <path d="M54.5,30.5 L50.5,30.5" id="Shape" stroke="#5391FF"></path>
                    <path d="M13.529,13.529 L16.358,16.358" id="Shape" stroke="#5391FF"></path>
                    <path d="M6.5,30.5 L10.5,30.5" id="Shape" stroke="#5391FF"></path>
                    <path d="M35,28.7138044 L46.5799185,22" id="Shape" stroke="#5391FF"></path>
                    <circle id="Oval" stroke="#5391FF" stroke-width="0.99998409" stroke-linecap="square" transform="translate(30.499100, 30.499900) rotate(-70.104517) translate(-30.499100, -30.499900) " cx="30.4991" cy="30.4999" r="4.99992045"></circle>
                    <path d="M55.872,46.5 C58.799,41.868 60.5,36.384 60.5,30.5 C60.5,13.931 47.069,0.5 30.5,0.5 C13.931,0.5 0.5,13.931 0.5,30.5 C0.5,36.384 2.201,41.868 5.128,46.5 L55.872,46.5 Z" id="Shape" stroke="#FFBD00" stroke-linecap="square"></path>
                </g>
                <g id="delivery-fast" transform="translate(0.000000, 16.000000)" stroke="#5391FF" stroke-linecap="square">
                    <path d="M20.5,0.5 L0.5,0.5" id="Shape"></path>
                    <path d="M20.5,10.5 L6.5,10.5" id="Shape"></path>
                    <path d="M20.5,20.5 L12.5,20.5" id="Shape"></path>
                </g>
            </g>
        </g>
    </g>
</svg>
