<?xml version="1.0" encoding="UTF-8"?>
<svg width="61px" height="49px" viewBox="0 0 61 49" version="1.1" xmlns="http://www.w3.org/2000/svg" xmlns:xlink="http://www.w3.org/1999/xlink">
    <!-- Generator: Sketch 50.2 (55047) - http://www.bohemiancoding.com/sketch -->
    <title>link-2</title>
    <desc>Created with Sketch.</desc>
    <defs></defs>
    <g id="1440px" stroke="none" stroke-width="1" fill="none" fill-rule="evenodd" stroke-linecap="square">
        <g id="Technical-features" transform="translate(-690.000000, -2263.000000)">
            <g id="link-2" transform="translate(690.000000, 2263.000000)">
                <path d="M7.497,32.041 C3.441,30.766 0.5,26.976 0.5,22.5 L0.5,10.5 C0.5,4.977 4.977,0.5 10.5,0.5 L36.5,0.5 C42.023,0.5 46.5,4.977 46.5,10.5 L46.5,22.5 C46.5,28.023 42.023,32.5 36.5,32.5 L21.5,32.5" id="Shape" stroke="#FFBD00"></path>
                <path d="M53.503,16.959 C57.559,18.234 60.5,22.024 60.5,26.5 L60.5,38.5 C60.5,44.023 56.023,48.5 50.5,48.5 L24.5,48.5 C18.977,48.5 14.5,44.023 14.5,38.5 L14.5,26.5 C14.5,20.977 18.977,16.5 24.5,16.5 L39.5,16.5" id="Shape" stroke="#5391FF"></path>
            </g>
        </g>
    </g>
</svg>