<svg width="62px" height="62px" viewBox="0 0 62 62" xmlns="http://www.w3.org/2000/svg">
	<g id="1440px" stroke="none" stroke-width="1" fill="none" fill-rule="evenodd">
		<g id="Forside@2x" transform="translate(-285.000000, -3026.000000)">
			<g id="b-security-copy-3" transform="translate(286.000000, 3027.000000)">
				<circle id="Oval" fill="#FFBD00" fill-rule="nonzero" cx="30" cy="19" r="2"></circle>
				<rect id="Rectangle-path" stroke="#FFBD00" stroke-linecap="square" x="20" y="13" width="20" height="13"></rect>
				<path d="M24,13 L24,6 C24,2.686 26.686,0 30,0 C33.314,0 36,2.686 36,6 L36,13" id="Shape" stroke="#FFBD00" stroke-linecap="square"></path>
				<circle id="Oval" stroke="#5391FF" stroke-linecap="square" cx="48" cy="36" r="6"></circle>
				<circle id="Oval" stroke="#5391FF" stroke-linecap="square" cx="12" cy="36" r="6"></circle>
				<path d="M24,60 L24,54.035 C24,52.615 23.255,51.309 22.033,50.586 C20.088,49.435 16.716,48 12,48 C7.223,48 3.873,49.426 1.948,50.575 C0.736,51.299 0,52.601 0,54.013 L0,60 L24,60 Z" id="Shape" stroke="#5391FF" stroke-linecap="square"></path>
				<path d="M60,60 L60,54.035 C60,52.615 59.255,51.309 58.033,50.586 C56.088,49.435 52.716,48 48,48 C43.223,48 39.873,49.426 37.948,50.575 C36.736,51.299 36,52.601 36,54.013 L36,60 L60,60 Z" id="Shape" stroke="#5391FF" stroke-linecap="square"></path>
			</g>
		</g>
	</g>
</svg>
