<svg width="62px" height="61px" viewBox="0 0 62 61" xmlns="http://www.w3.org/2000/svg">
	<g id="1440px" stroke="none" stroke-width="1" fill="none" fill-rule="evenodd">
		<g id="Forside@2x" transform="translate(-1085.000000, -3026.000000)">
			<g id="touch-id-copy-3" transform="translate(1086.000000, 3027.000000)">
				<path d="M7.65608,9.99995 C1.56848,16.80573 -1.34627,26.29708 0.59748,35.93709" id="Shape" stroke="#5391FF"></path>
				<path d="M47.00087,5.31354 C40.54296,0.86669 32.35942,-1.05732 24.0658,0.6149 C19.54803,1.52584 15.47384,3.40781 12.01673,5.99968" id="Shape" stroke="#5391FF"></path>
				<path d="M59.38657,24.08291 C58.19342,18.16551 55.33446,13.00917 51.39643,9.0037" id="Shape" stroke="#5391FF"></path>
				<path d="M59.99453,30.61337 C60.03568,28.46327 59.84528,26.27534 59.40277,24.07984" id="Shape" stroke="#5391FF"></path>
				<path d="M0.61368,35.93404 C0.70056,36.36452 0.79619,36.79105 0.90058,37.21344" id="Shape" stroke="#A8D6CC" stroke-width="2"></path>
				<path d="M22.25067,58.98348 C28.96846,51.33733 32.16695,40.75508 30.00011,30.00848" id="Shape" stroke="#5391FF"></path>
				<path d="M37.90976,32.09335 C37.77578,30.90786 37.58953,29.71818 37.34931,28.52685 L37.35785,28.5238 C36.53759,24.45581 32.57534,21.82295 28.50735,22.6433 C24.43959,23.46356 21.80684,27.42603 22.6273,31.49413 C22.84376,33.31249 25.20659,46.17186 14.83145,55.87888" id="Shape" stroke="#FFBD00"></path>
				<path d="M30.95015,59.98252 C35.27379,53.66418 37.84771,46.15507 38.14249,38.24897" id="Shape" stroke="#FFBD00"></path>
				<path d="M15.52998,26.00046 C14.9175,28.20343 14.8011,30.58013 15.28404,32.97519 L15.30154,32.97181 C16.72362,40.02423 13.98756,46.94788 8.78398,51.21018" id="Shape" stroke="#5391FF"></path>
				<path d="M40.75066,58.00174 C45.27079,48.72327 46.89596,37.94308 44.6987,27.04514 C44.16666,24.45834 39.81673,12.72172 27.02704,15.30048 C23.54585,16.00244 20.59101,17.85662 18.47957,20.38588" id="Shape" stroke="#5391FF"></path>
				<path d="M25.00009,8.07472 C13.13252,10.77024 5.52196,22.45979 7.94076,34.45614 L7.95235,34.4534 C8.79296,38.62326 7.21373,42.71848 4.18246,45.287" id="Shape" stroke="#FFBD00"></path>
				<path d="M51.27843,51.1327 C53.43693,43.03637 53.8162,34.33315 52.0479,25.56353 L52.04373,25.5632 C49.95811,15.21929 41.08718,7.97537 30.99995,7.53113" id="Shape" stroke="#FFBD00"></path>
			</g>
		</g>
	</g>
</svg>
