<?xml version="1.0" encoding="UTF-8"?>
<svg width="20px" height="20px" viewBox="0 0 20 20" version="1.1" xmlns="http://www.w3.org/2000/svg" xmlns:xlink="http://www.w3.org/1999/xlink">
    <title>Group</title>
    <g id="Layout" stroke="none" stroke-width="1" fill="none" fill-rule="evenodd">
        <g id="Language-selector" transform="translate(-80.000000, -94.000000)" fill="#D80027" fill-rule="nonzero">
            <g id="Group-10-Copy" transform="translate(50.000000, 50.000000)">
                <g id="denmark" transform="translate(30.000000, 44.000000)">
                    <g id="Group" transform="translate(0.084648, 0.000000)">
                        <path d="M7.74144531,8.69566406 L19.8307031,8.69566406 C19.1915234,3.78914062 14.9960938,0 9.91535156,0 C9.16867188,0 8.44144531,0.0825390625 7.74144531,0.237695312 L7.74144531,8.69566406 L7.74144531,8.69566406 Z" id="Path"></path>
                        <path d="M5.13273438,8.69566406 L5.13273438,1.21589844 C2.38691406,2.71410156 0.421210938,5.4621875 0,8.69566406 L5.13273438,8.69566406 L5.13273438,8.69566406 Z" id="Path"></path>
                        <path d="M5.13273438,11.3043359 L0,11.3043359 C0.421210938,14.5378125 2.38691406,17.2858984 5.13273438,18.7840625 L5.13273438,11.3043359 Z" id="Path"></path>
                        <path d="M7.74144531,11.3043359 L7.74144531,19.7623047 C8.44144531,19.9174609 9.16867188,20 9.91535156,20 C14.9960938,20 19.1915234,16.2108594 19.8307031,11.3043359 L7.74144531,11.3043359 L7.74144531,11.3043359 Z" id="Path"></path>
                    </g>
                </g>
            </g>
        </g>
    </g>
</svg>