<?xml version="1.0" encoding="UTF-8"?>
<svg width="20px" height="20px" viewBox="0 0 20 20" version="1.1" xmlns="http://www.w3.org/2000/svg" xmlns:xlink="http://www.w3.org/1999/xlink">
    <title>united-states</title>
    <g id="Layout" stroke="none" stroke-width="1" fill="none" fill-rule="evenodd">
        <g id="Language-selector" transform="translate(-80.000000, -144.000000)" fill-rule="nonzero">
            <g id="Group-10-Copy" transform="translate(50.000000, 50.000000)">
                <g id="united-states" transform="translate(30.000000, 94.000000)">
                    <circle id="Oval" fill="#F0F0F0" cx="10" cy="10" r="10"></circle>
                    <g id="Group" transform="translate(0.344492, 2.173906)" fill="#D80027">
                        <path d="M9.22074219,7.82609375 L19.6555078,7.82609375 C19.6555078,6.92351563 19.5351953,6.04914062 19.3110156,5.21738281 L9.22074219,5.21738281 L9.22074219,7.82609375 Z" id="Path"></path>
                        <path d="M9.22074219,2.60871094 L18.1877734,2.60871094 C17.575625,1.60980469 16.7929297,0.726875 15.8803516,5.55111512e-16 L9.22074219,5.55111512e-16 L9.22074219,2.60871094 Z" id="Path"></path>
                        <path d="M9.65550781,17.8260937 C12.0089844,17.8260937 14.1721484,17.0126562 15.8803516,15.6521875 L3.43066406,15.6521875 C5.13886719,17.0126562 7.30203125,17.8260937 9.65550781,17.8260937 Z" id="Path"></path>
                        <path d="M1.12324219,13.0434766 L18.1877734,13.0434766 C18.6792188,12.2415625 19.0603516,11.365 19.3110156,10.4347656 L1.5959456e-15,10.4347656 C0.250664063,11.365 0.631796875,12.2415625 1.12324219,13.0434766 Z" id="Path"></path>
                    </g>
                    <path d="M4.6321875,1.56164063 L5.54347656,1.56164063 L4.69582031,2.17746094 L5.01960937,3.17390625 L4.17199219,2.55808594 L3.324375,3.17390625 L3.6040625,2.31308594 C2.85773438,2.93476562 2.20359375,3.663125 1.66453125,4.4746875 L1.95652344,4.4746875 L1.41695313,4.86667969 C1.33289063,5.00691406 1.25226562,5.149375 1.175,5.29394531 L1.43265625,6.08695312 L0.951953125,5.73769531 C0.832460938,5.99085937 0.723164063,6.24972656 0.624921875,6.51398437 L0.908789063,7.38773437 L1.95652344,7.38773437 L1.10886719,8.00355469 L1.43265625,9 L0.585039063,8.38417969 L0.0773046875,8.75308594 C0.026484375,9.16160156 0,9.57769531 0,10 L10,10 C10,4.4771875 10,3.82609375 10,0 C8.02453125,0 6.18300781,0.573046875 4.6321875,1.56164063 Z M5.01960938,9 L4.17199219,8.38417969 L3.324375,9 L3.64816406,8.00355469 L2.80050781,7.38773437 L3.84824219,7.38773437 L4.17199219,6.39128906 L4.49574219,7.38773437 L5.54347656,7.38773437 L4.69582031,8.00355469 L5.01960938,9 Z M4.69582031,5.09050781 L5.01960937,6.08695312 L4.17199219,5.47113281 L3.324375,6.08695312 L3.64816406,5.09050781 L2.80050781,4.4746875 L3.84824219,4.4746875 L4.17199219,3.47824219 L4.49574219,4.4746875 L5.54347656,4.4746875 L4.69582031,5.09050781 Z M8.6065625,9 L7.75894531,8.38417969 L6.91132812,9 L7.23511719,8.00355469 L6.38746094,7.38773437 L7.43519531,7.38773437 L7.75894531,6.39128906 L8.08269531,7.38773437 L9.13042969,7.38773437 L8.28277344,8.00355469 L8.6065625,9 Z M8.28277344,5.09050781 L8.6065625,6.08695312 L7.75894531,5.47113281 L6.91132812,6.08695312 L7.23511719,5.09050781 L6.38746094,4.4746875 L7.43519531,4.4746875 L7.75894531,3.47824219 L8.08269531,4.4746875 L9.13042969,4.4746875 L8.28277344,5.09050781 Z M8.28277344,2.17746094 L8.6065625,3.17390625 L7.75894531,2.55808594 L6.91132812,3.17390625 L7.23511719,2.17746094 L6.38746094,1.56164062 L7.43519531,1.56164062 L7.75894531,0.565195312 L8.08269531,1.56164062 L9.13042969,1.56164062 L8.28277344,2.17746094 Z" id="Shape" fill="#0052B4"></path>
                </g>
            </g>
        </g>
    </g>
</svg>